<svg id="Layer_1" data-name="Layer 1" xmlns="http://www.w3.org/2000/svg" viewBox="0 0 841.9 841.9"><defs><style>.cls-1{fill:#ccc;}</style></defs><title>Plan de travail 1</title><path class="cls-1" d="M264,313.84A128.43,128.43,0,0,1,382.58,392,99.67,99.67,0,0,0,402.05,589.6,74.9,74.9,0,0,0,429.54,585c52.69,64.15,147.47,73.6,211.62,20.91a197.33,197.33,0,0,0,19.19-18.62A125.62,125.62,0,0,0,681,589.6a99.9,99.9,0,0,0,99.94-99.36c-.57-43-28.06-81.33-68.44-95.08C691.51,197.09,542.33,38.38,351.65,0a418.17,418.17,0,0,0-81.88,22.1C474.25,24.68,646,179.79,671.23,380.27c-3.44,0-6.88,1.15-10.31,1.15a155.11,155.11,0,0,0-50.4-38.95C570.43,186.41,427.82,75,266,73.87h-1.15a357.44,357.44,0,0,0-115.27,19A422.93,422.93,0,0,0,55.67,204.56a317.44,317.44,0,0,1,206.92-78c135.45,0,256,88.48,298.67,213.62A86.28,86.28,0,0,0,544.08,339a211.08,211.08,0,0,0-35.51,4.58A262.88,262.88,0,0,0,266.31,178.1H264C118.31,178.1.08,296.29,0,442A418.29,418.29,0,0,0,42.38,601.36V439.84C43.53,318.13,142.32,220.48,264,219.34a220.94,220.94,0,0,1,206.75,140,170,170,0,0,0-41.23,34.36h-2.29A170.36,170.36,0,0,0,264,272h-2.29A169.58,169.58,0,0,0,95.36,439.55V683.26a424.79,424.79,0,0,0,41.23,43.29V442.41A128,128,0,0,1,264,313.84ZM401.48,432.11a64.15,64.15,0,0,1,26.34,5.72A21.38,21.38,0,0,0,454.17,431a107.08,107.08,0,0,1,91.92-49.25,108.72,108.72,0,0,1,89.63,47c5.73,8,16,11.45,24,8a63.63,63.63,0,0,1,20.62-3.44,59.15,59.15,0,0,1,58.7,58.7c-.28,29.5-26.63,56.13-58.7,56.13a62.1,62.1,0,0,1-20.62-3.44,19.94,19.94,0,0,0-24,8c-34.36,49.54-102.8,62.14-152.35,27.49a111.06,111.06,0,0,1-29.2-29.78A20.57,20.57,0,0,0,437,541.21a25.28,25.28,0,0,0-9.16,2.29,49.46,49.46,0,0,1-26.34,5.73,58.57,58.57,0,0,1,0-117.12Z"/></svg>
