<svg id="Layer_1" data-name="Layer 1" xmlns="http://www.w3.org/2000/svg" viewBox="0 0 4793.76 4793.76"><defs><style>.cls-1{fill:#ffffff;}</style></defs><title>Artboard 1</title><g id="Consensys"><g id="main-Logo"><path id="_Tracé_" data-name="&lt;Tracé&gt;" class="cls-1" d="M2294.68,3541a3.94,3.94,0,1,0,4,4A4,4,0,0,0,2294.68,3541Z"/><path id="_Tracé_2" data-name="&lt;Tracé&gt;" class="cls-1" d="M2184.76,3502.81a7.84,7.84,0,0,0-7.89,7.89,7.9,7.9,0,1,0,7.89-7.89Z"/><path id="_Tracé_3" data-name="&lt;Tracé&gt;" class="cls-1" d="M2079.05,3453.3a11.87,11.87,0,0,0,0,23.74,11.87,11.87,0,1,0,0-23.74Z"/><path id="_Tracé_4" data-name="&lt;Tracé&gt;" class="cls-1" d="M1978.71,3392.88a15.86,15.86,0,1,0,15.93,15.86A15.83,15.83,0,0,0,1978.71,3392.88Z"/><path id="_Tracé_5" data-name="&lt;Tracé&gt;" class="cls-1" d="M1884.94,3322.3a19.82,19.82,0,1,0,19.8,19.8A19.82,19.82,0,0,0,1884.94,3322.3Z"/><path id="_Tracé_6" data-name="&lt;Tracé&gt;" class="cls-1" d="M1798.62,3242.09a23.77,23.77,0,1,0,23.82,23.82A23.75,23.75,0,0,0,1798.62,3242.09Z"/><path id="_Tracé_7" data-name="&lt;Tracé&gt;" class="cls-1" d="M1720.84,3153.32a27.74,27.74,0,1,0,27.77,27.74A27.75,27.75,0,0,0,1720.84,3153.32Z"/><path id="_Tracé_8" data-name="&lt;Tracé&gt;" class="cls-1" d="M1652.51,3056.61a31.75,31.75,0,1,0,31.77,31.77A31.74,31.74,0,0,0,1652.51,3056.61Z"/><path id="_Tracé_9" data-name="&lt;Tracé&gt;" class="cls-1" d="M1632.19,2987.78a35.7,35.7,0,1,0-35.71,35.71A35.78,35.78,0,0,0,1632.19,2987.78Z"/><path id="_Tracé_10" data-name="&lt;Tracé&gt;" class="cls-1" d="M1593.93,2880.69a39.68,39.68,0,1,0-39.74,39.65A39.69,39.69,0,0,0,1593.93,2880.69Z"/><path id="_Tracé_11" data-name="&lt;Tracé&gt;" class="cls-1" d="M1570.05,2769a43.64,43.64,0,1,0-43.65,43.65A43.66,43.66,0,0,0,1570.05,2769Z"/><path id="_Tracé_12" data-name="&lt;Tracé&gt;" class="cls-1" d="M1561.05,2654.73a47.59,47.59,0,1,0-47.56,47.5A47.5,47.5,0,0,0,1561.05,2654.73Z"/><path id="_Tracé_13" data-name="&lt;Tracé&gt;" class="cls-1" d="M1515.57,2591.14a51.53,51.53,0,1,0-51.59-51.59A51.52,51.52,0,0,0,1515.57,2591.14Z"/><path id="_Tracé_14" data-name="&lt;Tracé&gt;" class="cls-1" d="M1477.2,2425.82a55.51,55.51,0,1,0,55.48-55.56A55.42,55.42,0,0,0,1477.2,2425.82Z"/><path id="_Tracé_15" data-name="&lt;Tracé&gt;" class="cls-1" d="M3143.16,3275.91a3.53,3.53,0,1,0,3.5,3.5A3.56,3.56,0,0,0,3143.16,3275.91Z"/><path id="_Tracé_16" data-name="&lt;Tracé&gt;" class="cls-1" d="M3041.23,3325.94a7,7,0,0,0-7.08,6.94,7.05,7.05,0,1,0,14.1,0A7,7,0,0,0,3041.23,3325.94Z"/><path id="_Tracé_17" data-name="&lt;Tracé&gt;" class="cls-1" d="M2934.27,3365a10.54,10.54,0,1,0,10.53,10.5A10.52,10.52,0,0,0,2934.27,3365Z"/><path id="_Tracé_18" data-name="&lt;Tracé&gt;" class="cls-1" d="M2823.4,3392.52a14,14,0,0,0,0,28.05,14,14,0,1,0,0-28.05Z"/><path id="_Tracé_19" data-name="&lt;Tracé&gt;" class="cls-1" d="M2710,3408.18a17.55,17.55,0,1,0,17.38,17.5A17.56,17.56,0,0,0,2710,3408.18Z"/><path id="_Tracé_20" data-name="&lt;Tracé&gt;" class="cls-1" d="M2595.06,3411.82a21,21,0,1,0,21,21.07A20.95,20.95,0,0,0,2595.06,3411.82Z"/><path id="_Tracé_21" data-name="&lt;Tracé&gt;" class="cls-1" d="M2480,3403.41a24.52,24.52,0,1,0,24.61,24.49A24.48,24.48,0,0,0,2480,3403.41Z"/><path id="_Tracé_22" data-name="&lt;Tracé&gt;" class="cls-1" d="M2366.21,3382.64a28,28,0,1,0,28,28A28,28,0,0,0,2366.21,3382.64Z"/><path id="_Tracé_23" data-name="&lt;Tracé&gt;" class="cls-1" d="M2255.48,3347.63a31.5,31.5,0,1,0,31.54,31.46A31.55,31.55,0,0,0,2255.48,3347.63Z"/><path id="_Tracé_24" data-name="&lt;Tracé&gt;" class="cls-1" d="M2149.91,3298.31a35,35,0,1,0,35,35A35,35,0,0,0,2149.91,3298.31Z"/><path id="_Tracé_25" data-name="&lt;Tracé&gt;" class="cls-1" d="M2089.77,3274a38.57,38.57,0,1,0-38.54,38.54A38.5,38.5,0,0,0,2089.77,3274Z"/><path id="_Tracé_26" data-name="&lt;Tracé&gt;" class="cls-1" d="M1961.27,3160.29a42,42,0,1,0,42,42A42.13,42.13,0,0,0,1961.27,3160.29Z"/><path id="_Tracé_27" data-name="&lt;Tracé&gt;" class="cls-1" d="M1881.36,3073.85a45.58,45.58,0,1,0,45.54,45.57A45.55,45.55,0,0,0,1881.36,3073.85Z"/><path id="_Tracé_28" data-name="&lt;Tracé&gt;" class="cls-1" d="M1813,3075.94a49.07,49.07,0,1,0-49-49.09A49,49,0,0,0,1813,3075.94Z"/><path id="_Tracé_29" data-name="&lt;Tracé&gt;" class="cls-1" d="M1809.67,2926.22a52.51,52.51,0,1,0-52.54,52.54A52.55,52.55,0,0,0,1809.67,2926.22Z"/><path id="_Tracé_30" data-name="&lt;Tracé&gt;" class="cls-1" d="M3555.34,2488.58a3.18,3.18,0,0,0-3.19,3.08,3.27,3.27,0,0,0,3.19,3.22,3.16,3.16,0,0,0,3.11-3.22A3.08,3.08,0,0,0,3555.34,2488.58Z"/><path id="_Tracé_31" data-name="&lt;Tracé&gt;" class="cls-1" d="M3521.11,2595.36a6.25,6.25,0,1,0,6.22,6.22A6.21,6.21,0,0,0,3521.11,2595.36Z"/><path id="_Tracé_32" data-name="&lt;Tracé&gt;" class="cls-1" d="M3475.46,2697.88a9.44,9.44,0,1,0,9.5,9.41A9.42,9.42,0,0,0,3475.46,2697.88Z"/><path id="_Tracé_33" data-name="&lt;Tracé&gt;" class="cls-1" d="M3419.1,2795.17a12.51,12.51,0,1,0,12.55,12.49A12.49,12.49,0,0,0,3419.1,2795.17Z"/><path id="_Tracé_34" data-name="&lt;Tracé&gt;" class="cls-1" d="M3352.43,2885.8a15.69,15.69,0,1,0,15.72,15.74A15.75,15.75,0,0,0,3352.43,2885.8Z"/><path id="_Tracé_35" data-name="&lt;Tracé&gt;" class="cls-1" d="M3276.21,2968.93a18.84,18.84,0,1,0,18.83,18.82A18.8,18.8,0,0,0,3276.21,2968.93Z"/><path id="_Tracé_36" data-name="&lt;Tracé&gt;" class="cls-1" d="M3191.39,3043.7a22,22,0,1,0,22,21.88A21.85,21.85,0,0,0,3191.39,3043.7Z"/><path id="_Tracé_37" data-name="&lt;Tracé&gt;" class="cls-1" d="M3098.76,3108.76a25.13,25.13,0,1,0,25,25.15A25.2,25.2,0,0,0,3098.76,3108.76Z"/><path id="_Tracé_38" data-name="&lt;Tracé&gt;" class="cls-1" d="M2998.22,3161.65a28.25,28.25,0,1,0,28.21,28.21A28.32,28.32,0,0,0,2998.22,3161.65Z"/><path id="_Tracé_39" data-name="&lt;Tracé&gt;" class="cls-1" d="M2891.1,3200.77a31.43,31.43,0,1,0,31.32,31.38A31.39,31.39,0,0,0,2891.1,3200.77Z"/><path id="_Tracé_40" data-name="&lt;Tracé&gt;" class="cls-1" d="M2779.42,3225.48a34.55,34.55,0,1,0,34.49,34.57A34.61,34.61,0,0,0,2779.42,3225.48Z"/><path id="_Tracé_41" data-name="&lt;Tracé&gt;" class="cls-1" d="M2665,3235.26a37.65,37.65,0,1,0,37.65,37.73A37.7,37.7,0,0,0,2665,3235.26Z"/><path id="_Tracé_42" data-name="&lt;Tracé&gt;" class="cls-1" d="M2590.73,3270.85a40.75,40.75,0,1,0-40.82,40.76A40.86,40.86,0,0,0,2590.73,3270.85Z"/><path id="_Tracé_43" data-name="&lt;Tracé&gt;" class="cls-1" d="M2480.1,3253.8a43.93,43.93,0,1,0-43.95,43.9A43.9,43.9,0,0,0,2480.1,3253.8Z"/><path id="_Tracé_44" data-name="&lt;Tracé&gt;" class="cls-1" d="M2372.65,3222a47.11,47.11,0,1,0-47.12,47.12A47.09,47.09,0,0,0,2372.65,3222Z"/><path id="_Tracé_45" data-name="&lt;Tracé&gt;" class="cls-1" d="M2270.14,3176a50.18,50.18,0,1,0-50.15,50.2A50.12,50.12,0,0,0,2270.14,3176Z"/><path id="_Tracé_46" data-name="&lt;Tracé&gt;" class="cls-1" d="M3289.71,1646.4a3.12,3.12,0,1,0,0-6.24,3.12,3.12,0,0,0,0,6.24Z"/><path id="_Tracé_47" data-name="&lt;Tracé&gt;" class="cls-1" d="M3343.35,1751.47a6.29,6.29,0,1,0-6.27-6.3A6.22,6.22,0,0,0,3343.35,1751.47Z"/><path id="_Tracé_48" data-name="&lt;Tracé&gt;" class="cls-1" d="M3385.8,1861.56a9.39,9.39,0,1,0-9.38-9.38A9.38,9.38,0,0,0,3385.8,1861.56Z"/><path id="_Tracé_49" data-name="&lt;Tracé&gt;" class="cls-1" d="M3416.9,1975.54a12.57,12.57,0,1,0-12.52-12.52A12.51,12.51,0,0,0,3416.9,1975.54Z"/><path id="_Tracé_50" data-name="&lt;Tracé&gt;" class="cls-1" d="M3420.37,2076.53a15.69,15.69,0,1,0,15.66-15.74A15.73,15.73,0,0,0,3420.37,2076.53Z"/><path id="_Tracé_51" data-name="&lt;Tracé&gt;" class="cls-1" d="M3443.2,2172.54a18.8,18.8,0,1,0,18.85,18.85A18.85,18.85,0,0,0,3443.2,2172.54Z"/><path id="_Tracé_52" data-name="&lt;Tracé&gt;" class="cls-1" d="M3438.2,2284.41a22,22,0,1,0,22,22A21.94,21.94,0,0,0,3438.2,2284.41Z"/><path id="_Tracé_53" data-name="&lt;Tracé&gt;" class="cls-1" d="M3421,2395.14a25.09,25.09,0,1,0,25.16,25.1A25,25,0,0,0,3421,2395.14Z"/><path id="_Tracé_54" data-name="&lt;Tracé&gt;" class="cls-1" d="M3417.71,2531a28.27,28.27,0,1,0-28.21,28.26A28.15,28.15,0,0,0,3417.71,2531Z"/><path id="_Tracé_55" data-name="&lt;Tracé&gt;" class="cls-1" d="M3343.63,2605.19a31.38,31.38,0,1,0,31.37,31.38A31.33,31.33,0,0,0,3343.63,2605.19Z"/><path id="_Tracé_56" data-name="&lt;Tracé&gt;" class="cls-1" d="M3284.37,2700.76a34.49,34.49,0,1,0,34.46,34.49A34.49,34.49,0,0,0,3284.37,2700.76Z"/><path id="_Tracé_57" data-name="&lt;Tracé&gt;" class="cls-1" d="M3212.63,2787.61a37.64,37.64,0,1,0,37.62,37.57A37.57,37.57,0,0,0,3212.63,2787.61Z"/><path id="_Tracé_58" data-name="&lt;Tracé&gt;" class="cls-1" d="M3129.77,2864.28a40.8,40.8,0,1,0,40.82,40.84A40.78,40.78,0,0,0,3129.77,2864.28Z"/><path id="_Tracé_59" data-name="&lt;Tracé&gt;" class="cls-1" d="M3037.26,2929.55a43.9,43.9,0,1,0,43.93,44A43.92,43.92,0,0,0,3037.26,2929.55Z"/><path id="_Tracé_60" data-name="&lt;Tracé&gt;" class="cls-1" d="M2936.58,2982.12a47.09,47.09,0,1,0,47.06,47.11A47.08,47.08,0,0,0,2936.58,2982.12Z"/><path id="_Tracé_61" data-name="&lt;Tracé&gt;" class="cls-1" d="M2829.46,3021.18a50.2,50.2,0,1,0,50.25,50.2A50.25,50.25,0,0,0,2829.46,3021.18Z"/><path id="_Tracé_62" data-name="&lt;Tracé&gt;" class="cls-1" d="M2502.1,1234.22a3.15,3.15,0,0,0,3.08-3.17,3.13,3.13,0,0,0-6.25,0A3.15,3.15,0,0,0,2502.1,1234.22Z"/><path id="_Tracé_63" data-name="&lt;Tracé&gt;" class="cls-1" d="M2612,1271.59a6.28,6.28,0,1,0-6.33-6.3A6.28,6.28,0,0,0,2612,1271.59Z"/><path id="_Tracé_64" data-name="&lt;Tracé&gt;" class="cls-1" d="M2717.73,1320.29a9.41,9.41,0,1,0-9.44-9.38A9.41,9.41,0,0,0,2717.73,1320.29Z"/><path id="_Tracé_65" data-name="&lt;Tracé&gt;" class="cls-1" d="M2818.07,1379.82a12.55,12.55,0,1,0-12.6-12.55A12.52,12.52,0,0,0,2818.07,1379.82Z"/><path id="_Tracé_66" data-name="&lt;Tracé&gt;" class="cls-1" d="M2911.84,1449.57a15.65,15.65,0,1,0-15.69-15.66A15.61,15.61,0,0,0,2911.84,1449.57Z"/><path id="_Tracé_67" data-name="&lt;Tracé&gt;" class="cls-1" d="M2998.11,1529a18.85,18.85,0,1,0-18.77-18.88A18.87,18.87,0,0,0,2998.11,1529Z"/><path id="_Tracé_68" data-name="&lt;Tracé&gt;" class="cls-1" d="M3076,1616.94a22,22,0,1,0-22.05-21.87A22,22,0,0,0,3076,1616.94Z"/><path id="_Tracé_69" data-name="&lt;Tracé&gt;" class="cls-1" d="M3144.33,1712.79a25.13,25.13,0,1,0-25.16-25.15A25.09,25.09,0,0,0,3144.33,1712.79Z"/><path id="_Tracé_70" data-name="&lt;Tracé&gt;" class="cls-1" d="M3200.3,1816.47a28.21,28.21,0,1,0-28.32-28.21A28.25,28.25,0,0,0,3200.3,1816.47Z"/><path id="_Tracé_71" data-name="&lt;Tracé&gt;" class="cls-1" d="M3211.18,1895.27a31.39,31.39,0,1,0,31.41-31.29A31.32,31.32,0,0,0,3211.18,1895.27Z"/><path id="_Tracé_72" data-name="&lt;Tracé&gt;" class="cls-1" d="M3235.9,2007.06a34.53,34.53,0,1,0,34.54-34.6A34.45,34.45,0,0,0,3235.9,2007.06Z"/><path id="_Tracé_73" data-name="&lt;Tracé&gt;" class="cls-1" d="M3245.62,2121.4a37.69,37.69,0,1,0,37.65-37.71A37.65,37.65,0,0,0,3245.62,2121.4Z"/><path id="_Tracé_74" data-name="&lt;Tracé&gt;" class="cls-1" d="M3321.91,2236.46a40.79,40.79,0,1,0-40.81,40.73A40.68,40.68,0,0,0,3321.91,2236.46Z"/><path id="_Tracé_75" data-name="&lt;Tracé&gt;" class="cls-1" d="M3308,2350.24a43.92,43.92,0,1,0-43.85,44A43.91,43.91,0,0,0,3308,2350.24Z"/><path id="_Tracé_76" data-name="&lt;Tracé&gt;" class="cls-1" d="M3279.43,2460.89a47.08,47.08,0,1,0-47.09,47.06A47.09,47.09,0,0,0,3279.43,2460.89Z"/><path id="_Tracé_77" data-name="&lt;Tracé&gt;" class="cls-1" d="M3186.36,2516.17a50.23,50.23,0,1,0,50.31,50.23A50.23,50.23,0,0,0,3186.36,2516.17Z"/><path id="_Tracé_78" data-name="&lt;Tracé&gt;" class="cls-1" d="M1653.68,1499.72a3.13,3.13,0,0,0,3.11-3.11,3.14,3.14,0,1,0-6.28,0A3.1,3.1,0,0,0,1653.68,1499.72Z"/><path id="_Tracé_79" data-name="&lt;Tracé&gt;" class="cls-1" d="M1755.53,1449.32a6.24,6.24,0,1,0-6.28-6.19A6.25,6.25,0,0,0,1755.53,1449.32Z"/><path id="_Tracé_80" data-name="&lt;Tracé&gt;" class="cls-1" d="M1862.48,1410a9.46,9.46,0,1,0-9.36-9.39A9.39,9.39,0,0,0,1862.48,1410Z"/><path id="_Tracé_81" data-name="&lt;Tracé&gt;" class="cls-1" d="M1973.32,1382a12.55,12.55,0,1,0-12.55-12.55A12.47,12.47,0,0,0,1973.32,1382Z"/><path id="_Tracé_82" data-name="&lt;Tracé&gt;" class="cls-1" d="M2086.83,1366a15.68,15.68,0,1,0-15.72-15.69A15.63,15.63,0,0,0,2086.83,1366Z"/><path id="_Tracé_83" data-name="&lt;Tracé&gt;" class="cls-1" d="M2201.72,1362a18.83,18.83,0,1,0-18.88-18.8A18.75,18.75,0,0,0,2201.72,1362Z"/><path id="_Tracé_84" data-name="&lt;Tracé&gt;" class="cls-1" d="M2316.73,1370.05a21.94,21.94,0,1,0-21.91-21.88A21.87,21.87,0,0,0,2316.73,1370.05Z"/><path id="_Tracé_85" data-name="&lt;Tracé&gt;" class="cls-1" d="M2430.54,1390.43a25.1,25.1,0,1,0-25-25.1A25.05,25.05,0,0,0,2430.54,1390.43Z"/><path id="_Tracé_86" data-name="&lt;Tracé&gt;" class="cls-1" d="M2541.3,1425.14a28.24,28.24,0,1,0-28.21-28.27A28.37,28.37,0,0,0,2541.3,1425.14Z"/><path id="_Tracé_87" data-name="&lt;Tracé&gt;" class="cls-1" d="M2646.9,1474.06a31.38,31.38,0,1,0-31.3-31.37A31.29,31.29,0,0,0,2646.9,1474.06Z"/><path id="_Tracé_88" data-name="&lt;Tracé&gt;" class="cls-1" d="M2711,1502a34.5,34.5,0,1,0,34.51-34.46A34.49,34.49,0,0,0,2711,1502Z"/><path id="_Tracé_89" data-name="&lt;Tracé&gt;" class="cls-1" d="M2835.59,1611.39a37.62,37.62,0,1,0-37.73-37.71A37.68,37.68,0,0,0,2835.59,1611.39Z"/><path id="_Tracé_90" data-name="&lt;Tracé&gt;" class="cls-1" d="M2915.42,1697.41a40.82,40.82,0,1,0-40.76-40.79A40.84,40.84,0,0,0,2915.42,1697.41Z"/><path id="_Tracé_91" data-name="&lt;Tracé&gt;" class="cls-1" d="M2983.78,1705.18a43.92,43.92,0,1,0,43.93,43.93A43.92,43.92,0,0,0,2983.78,1705.18Z"/><path id="_Tracé_92" data-name="&lt;Tracé&gt;" class="cls-1" d="M2992.56,1849.85a47,47,0,1,0,47-47.07A47,47,0,0,0,2992.56,1849.85Z"/><path id="_Tracé_93" data-name="&lt;Tracé&gt;" class="cls-1" d="M3031.54,1956.86a50.19,50.19,0,1,0,50.25-50.15A50.24,50.24,0,0,0,3031.54,1956.86Z"/><path id="_Tracé_94" data-name="&lt;Tracé&gt;" class="cls-1" d="M3109.42,2015.17a53.35,53.35,0,1,0,53.34,53.36A53.37,53.37,0,0,0,3109.42,2015.17Z"/><path id="_Tracé_95" data-name="&lt;Tracé&gt;" class="cls-1" d="M1241.44,2278.41a5.92,5.92,0,1,0,0,11.83,5.92,5.92,0,0,0,0-11.83Z"/><path id="_Tracé_96" data-name="&lt;Tracé&gt;" class="cls-1" d="M1275.73,2162.6a11.83,11.83,0,1,0,11.77,11.86A11.9,11.9,0,0,0,1275.73,2162.6Z"/><path id="_Tracé_97" data-name="&lt;Tracé&gt;" class="cls-1" d="M1339,2068.75a17.8,17.8,0,1,0-17.85,17.75A17.82,17.82,0,0,0,1339,2068.75Z"/><path id="_Tracé_98" data-name="&lt;Tracé&gt;" class="cls-1" d="M1377.63,1992.06a23.67,23.67,0,1,0-23.66-23.68A23.72,23.72,0,0,0,1377.63,1992.06Z"/><path id="_Tracé_99" data-name="&lt;Tracé&gt;" class="cls-1" d="M1444.32,1904.16a29.59,29.59,0,1,0-29.57-29.58A29.53,29.53,0,0,0,1444.32,1904.16Z"/><path id="_Tracé_100" data-name="&lt;Tracé&gt;" class="cls-1" d="M1520.51,1823.74a35.48,35.48,0,1,0-35.48-35.48A35.48,35.48,0,0,0,1520.51,1823.74Z"/><path id="_Tracé_101" data-name="&lt;Tracé&gt;" class="cls-1" d="M1605.37,1751.94a41.48,41.48,0,1,0-41.43-41.48A41.44,41.44,0,0,0,1605.37,1751.94Z"/><path id="_Tracé_102" data-name="&lt;Tracé&gt;" class="cls-1" d="M1697.83,1689.44a47.36,47.36,0,1,0-47.23-47.31A47.37,47.37,0,0,0,1697.83,1689.44Z"/><path id="_Tracé_103" data-name="&lt;Tracé&gt;" class="cls-1" d="M1798,1638.6a53.26,53.26,0,1,0-53.23-53.31A53.26,53.26,0,0,0,1798,1638.6Z"/><path id="_Tracé_104" data-name="&lt;Tracé&gt;" class="cls-1" d="M1904.66,1601.17a59.07,59.07,0,0,0,58.28-50.37,64.87,64.87,0,0,0,110.95-7.38,70.68,70.68,0,0,0,109,5.16,76.73,76.73,0,0,0,106.51,18.66,72.62,72.62,0,0,0,9.89,12.78,86.46,86.46,0,0,0-50.48,23.26,82.2,82.2,0,0,0-122,12.36,76.86,76.86,0,0,0-47.87-16.58,77.85,77.85,0,0,0-70.47,45,73.22,73.22,0,0,0-112.56,44.12,68.64,68.64,0,0,0-104.4,58.59v.25a64,64,0,0,0-96.07,55.53,65.27,65.27,0,0,0,2.55,17.8,58.86,58.86,0,0,0-31-8.94,59.53,59.53,0,1,0,59.5,59.58,61.2,61.2,0,0,0-2-14.77,64.05,64.05,0,0,0,99-51.42,68.3,68.3,0,0,0,36.7,10.72c1.2,0,2.5-.17,3.78-.17a78.4,78.4,0,0,0-25.46,52.14,75.39,75.39,0,0,0-89.33,74,59,59,0,0,0,.61,8.83,57.84,57.84,0,0,0-8.27-.53,71.32,71.32,0,0,0-71.33,71.33,68.44,68.44,0,0,0,3.75,22.71c-1.45,0-2.83-.19-4.22-.19a67.28,67.28,0,0,0-57.42,102.65,15.93,15.93,0,0,0-2-.11A63.36,63.36,0,0,0,1567.1,2256c-.94,0-1.8-.28-2.66-.28a59.73,59.73,0,1,0,41.76,17.22c1.33.08,2.75.17,4.16.17a63.09,63.09,0,0,0,46.48-20.39c0,.73,0,1.48,0,2.17a73.82,73.82,0,0,0,14.33,43.65,69.91,69.91,0,0,0-21.88,119.12A66.48,66.48,0,0,0,1646,2537a63,63,0,0,0,14.46,117.56A59.4,59.4,0,0,0,1687.3,2767a56.47,56.47,0,0,0,10.91-1.11,55.38,55.38,0,1,0,16.86-2.83,53.35,53.35,0,0,0-10.19,1,59.28,59.28,0,0,0,42-56.59c0-1.5-.34-2.78-.48-4.27a68.11,68.11,0,0,0,35.16,20.52,65.76,65.76,0,0,0,50.22,108.42c.56,0,1,0,1.45,0a62.64,62.64,0,0,0,50.76,99.49,64.19,64.19,0,0,0,18.21-2.69,59.62,59.62,0,0,0,49.65,92.54,58.57,58.57,0,0,0,37-13.27,56.42,56.42,0,1,0,83.52-2.22,72.93,72.93,0,0,0,21.72-3.75v.77a69,69,0,0,0,37.59,61.45,48.72,48.72,0,0,0-10.33-1.08,53.92,53.92,0,1,0,25.22,6.52,67.17,67.17,0,0,0,16.54,2.11,68.87,68.87,0,0,0,36.43-10.44,65.79,65.79,0,0,0,113.12,40.1A62.7,62.7,0,0,0,2430,3121.31a59.47,59.47,0,0,0,117.45-5.56,56.32,56.32,0,1,0,57.39-60.19,73.58,73.58,0,0,0,12.75-18.13,69,69,0,0,0,70.36,17.52,53.34,53.34,0,1,0,29.93-9.17,50.78,50.78,0,0,0-15.27,2.5,69.14,69.14,0,0,0,31.54-43.48,65.26,65.26,0,0,0,42.48,15.6,66,66,0,0,0,66-65.86c0-.49-.17-1-.17-1.41a62.71,62.71,0,0,0,99.52-50.79,59.82,59.82,0,0,0-2.72-18.21,59.41,59.41,0,0,0,79.35-86.69,55.38,55.38,0,0,0,36.65,13.83,56.48,56.48,0,1,0,0-112.95,55.69,55.69,0,0,0-38.93,15.77,77.05,77.05,0,0,0-3.69-21.85h.64a69.15,69.15,0,0,0,61.5-37.6,54.85,54.85,0,0,0-1.08,10.3,54,54,0,1,0,6.61-25.18,68.77,68.77,0,0,0,2.11-16.52,69.53,69.53,0,0,0-10.53-36.54,65.77,65.77,0,0,0,40.1-113.09,62.71,62.71,0,0,0,19.68-117.2,59.43,59.43,0,0,0-5.55-117.4,56.87,56.87,0,1,0-10.22-.28c-31.07,2.17-55.72,27.66-55.72,59.26,0,22.46,12.74,41.79,31.07,52a62.6,62.6,0,0,0-33.63,106,65.75,65.75,0,0,0-48,98.46,69,69,0,0,0-65.36,68.86,65.65,65.65,0,0,0,3.11,20,31.28,31.28,0,0,0-3.17-.22,72.21,72.21,0,0,0-72.19,72.19,47.71,47.71,0,0,0,.3,5.16,70.66,70.66,0,0,0-11.35-.94,75.19,75.19,0,0,0-74.44,64.5,81.07,81.07,0,0,0-20.55-2.8,78.52,78.52,0,0,0-71,45.39,68.7,68.7,0,0,0-106.15,25.35,69,69,0,0,0-111.64,14,69.2,69.2,0,0,0-104.18-4.44,69.28,69.28,0,0,0-103-28,69.18,69.18,0,0,0-95.93-47.78,69,69,0,0,0-80.13-66.09,69.12,69.12,0,0,0-66.5-84.79,68.93,68.93,0,0,0-44.81-94,69.16,69.16,0,0,0-20.19-102.07,69.26,69.26,0,0,0,3.47-107,69.65,69.65,0,0,0,36.21-45.15,68.74,68.74,0,0,0-10.58-56.47,69.09,69.09,0,0,0,49.84-90.68,69.19,69.19,0,0,0,72-79.36,69.25,69.25,0,0,0,85.35-60.92,69.14,69.14,0,0,0,97.13-37.51,68.27,68.27,0,0,0,53.25,17.46h-.11a68.29,68.29,0,0,0,51.59-31.87,68.93,68.93,0,0,0,104.87,9.61,69,69,0,0,0,102,32.07,69.31,69.31,0,0,0,34.84,48h-.14a68.89,68.89,0,0,0,49.51,6.61c1.86,2.58,3.86,5.05,5.91,7.39a67.81,67.81,0,0,0,17.27,41.26,14,14,0,0,0,1.48,1.39c35.23,36.87,117.06,126.41,101.76,246.28-3.89,29.88,12.88,44.95,34.32,21.88,129.92-140,109.59-312.06,106.67-332a114.5,114.5,0,0,0-8.41-37.29,113.84,113.84,0,0,0,2.31-22.52,111.24,111.24,0,0,0-44-88.57,109.42,109.42,0,0,0,2-20.11,106.53,106.53,0,0,0-66.7-98.84,101.85,101.85,0,0,0-86.07-98.66,97.05,97.05,0,0,0-95.35-79.41c-1.75,0-3.36.17-5.22.22a91.8,91.8,0,0,0-87.35-63.5,89.82,89.82,0,0,0-23.07,3A87,87,0,0,0,2429.79,1482a82.29,82.29,0,0,0-122-22.79,76.7,76.7,0,0,0-122.17-3A70.86,70.86,0,0,0,2066,1471.59a65.05,65.05,0,0,0-114.4,34.74,59.06,59.06,0,1,0-46.89,94.84Z"/><path id="_Tracé_105" data-name="&lt;Tracé&gt;" class="cls-1" d="M1507,3128.19a4.55,4.55,0,0,0-4.49,4.61,4.61,4.61,0,0,0,4.49,4.61,4.7,4.7,0,0,0,4.67-4.61A4.65,4.65,0,0,0,1507,3128.19Z"/><path id="_Tracé_106" data-name="&lt;Tracé&gt;" class="cls-1" d="M1453.54,3021.74a9.12,9.12,0,0,0-9.16,9.1,9.14,9.14,0,1,0,18.27,0A9.08,9.08,0,0,0,1453.54,3021.74Z"/><path id="_Tracé_107" data-name="&lt;Tracé&gt;" class="cls-1" d="M1411,2910.12a13.75,13.75,0,1,0,13.74,13.8A13.79,13.79,0,0,0,1411,2910.12Z"/><path id="_Tracé_108" data-name="&lt;Tracé&gt;" class="cls-1" d="M1379.91,2794.72a18.3,18.3,0,1,0,18.32,18.3A18.28,18.28,0,0,0,1379.91,2794.72Z"/><path id="_Tracé_109" data-name="&lt;Tracé&gt;" class="cls-1" d="M1383.57,2699.6a22.91,22.91,0,1,0-22.85,22.85A22.9,22.9,0,0,0,1383.57,2699.6Z"/><path id="_Tracé_110" data-name="&lt;Tracé&gt;" class="cls-1" d="M1381.07,2584.65a27.49,27.49,0,1,0-27.49,27.54A27.46,27.46,0,0,0,1381.07,2584.65Z"/><path id="_Tracé_111" data-name="&lt;Tracé&gt;" class="cls-1" d="M1326.51,2469.69a32,32,0,1,0,32.07-32A32,32,0,0,0,1326.51,2469.69Z"/><path id="_Tracé_112" data-name="&lt;Tracé&gt;" class="cls-1" d="M1375.8,2392.48a36.64,36.64,0,1,0-36.71-36.65A36.62,36.62,0,0,0,1375.8,2392.48Z"/><path id="_Tracé_113" data-name="&lt;Tracé&gt;" class="cls-1" d="M1407.34,2203.92a41.21,41.21,0,1,0,41.15,41.23A41.23,41.23,0,0,0,1407.34,2203.92Z"/><path id="_Tracé_114" data-name="&lt;Tracé&gt;" class="cls-1" d="M1453.07,2185.31a45.81,45.81,0,1,0-45.73-45.81A45.82,45.82,0,0,0,1453.07,2185.31Z"/><path id="_Tracé_115" data-name="&lt;Tracé&gt;" class="cls-1" d="M1512.41,2091.22a50.39,50.39,0,1,0-50.48-50.34A50.32,50.32,0,0,0,1512.41,2091.22Z"/><path id="_Tracé_116" data-name="&lt;Tracé&gt;" class="cls-1" d="M1639.07,1950.86a54.95,54.95,0,1,0-55,54.92A55,55,0,0,0,1639.07,1950.86Z"/></g></g></svg>
