<svg id="Layer_1" data-name="Layer 1" xmlns="http://www.w3.org/2000/svg" viewBox="0 0 4793.765 4793.765"><defs><style>.cls-1{fill:#2c56dd;}</style></defs><title>Artboard 1</title><g id="Consensys"><g id="main-Logo"><path id="_Path_" data-name="&lt;Path&gt;" class="cls-1" d="M2294.683,3160.4a3.942,3.942,0,1,0,3.972,3.97A3.958,3.958,0,0,0,2294.683,3160.4Z"/><path id="_Path_2" data-name="&lt;Path&gt;" class="cls-1" d="M2184.758,3122.194a7.829,7.829,0,0,0-7.884,7.887,7.9,7.9,0,1,0,7.884-7.887Z"/><path id="_Path_3" data-name="&lt;Path&gt;" class="cls-1" d="M2079.055,3072.687a11.871,11.871,0,0,0,0,23.741,11.871,11.871,0,1,0,0-23.741Z"/><path id="_Path_4" data-name="&lt;Path&gt;" class="cls-1" d="M1978.709,3012.269a15.855,15.855,0,1,0,15.936,15.854A15.826,15.826,0,0,0,1978.709,3012.269Z"/><path id="_Path_5" data-name="&lt;Path&gt;" class="cls-1" d="M1884.942,2941.688a19.812,19.812,0,1,0,19.8,19.8A19.815,19.815,0,0,0,1884.942,2941.688Z"/><path id="_Path_6" data-name="&lt;Path&gt;" class="cls-1" d="M1798.618,2861.472a23.768,23.768,0,1,0,23.823,23.823A23.754,23.754,0,0,0,1798.618,2861.472Z"/><path id="_Path_7" data-name="&lt;Path&gt;" class="cls-1" d="M1720.844,2772.7a27.738,27.738,0,1,0,27.767,27.738A27.747,27.747,0,0,0,1720.844,2772.7Z"/><path id="_Path_8" data-name="&lt;Path&gt;" class="cls-1" d="M1652.512,2676a31.75,31.75,0,1,0,31.765,31.765A31.746,31.746,0,0,0,1652.512,2676Z"/><path id="_Path_9" data-name="&lt;Path&gt;" class="cls-1" d="M1632.189,2607.164a35.694,35.694,0,1,0-35.708,35.706A35.777,35.777,0,0,0,1632.189,2607.164Z"/><path id="_Path_10" data-name="&lt;Path&gt;" class="cls-1" d="M1593.928,2500.071a39.679,39.679,0,1,0-39.734,39.649A39.692,39.692,0,0,0,1593.928,2500.071Z"/><path id="_Path_11" data-name="&lt;Path&gt;" class="cls-1" d="M1570.047,2388.394a43.634,43.634,0,1,0-43.646,43.649A43.661,43.661,0,0,0,1570.047,2388.394Z"/><path id="_Path_12" data-name="&lt;Path&gt;" class="cls-1" d="M1561.051,2274.11a47.59,47.59,0,1,0-47.562,47.508A47.5,47.5,0,0,0,1561.051,2274.11Z"/><path id="_Path_13" data-name="&lt;Path&gt;" class="cls-1" d="M1515.571,2210.527a51.534,51.534,0,1,0-51.591-51.59A51.53,51.53,0,0,0,1515.571,2210.527Z"/><path id="_Path_14" data-name="&lt;Path&gt;" class="cls-1" d="M1477.2,2045.207a55.5,55.5,0,1,0,55.477-55.559A55.423,55.423,0,0,0,1477.2,2045.207Z"/><path id="_Path_15" data-name="&lt;Path&gt;" class="cls-1" d="M3143.157,2895.292a3.526,3.526,0,1,0,3.5,3.5A3.557,3.557,0,0,0,3143.157,2895.292Z"/><path id="_Path_16" data-name="&lt;Path&gt;" class="cls-1" d="M3041.23,2945.325a6.974,6.974,0,0,0-7.079,6.943,7.052,7.052,0,1,0,14.1,0A7,7,0,0,0,3041.23,2945.325Z"/><path id="_Path_17" data-name="&lt;Path&gt;" class="cls-1" d="M2934.275,2984.337a10.537,10.537,0,1,0,10.523,10.494A10.512,10.512,0,0,0,2934.275,2984.337Z"/><path id="_Path_18" data-name="&lt;Path&gt;" class="cls-1" d="M2823.4,3011.908a14.023,14.023,0,0,0,0,28.046,14.023,14.023,0,1,0,0-28.046Z"/><path id="_Path_19" data-name="&lt;Path&gt;" class="cls-1" d="M2709.952,3027.568a17.549,17.549,0,1,0,17.38,17.492A17.557,17.557,0,0,0,2709.952,3027.568Z"/><path id="_Path_20" data-name="&lt;Path&gt;" class="cls-1" d="M2595.057,3031.2a21.033,21.033,0,1,0,21.045,21.074A20.951,20.951,0,0,0,2595.057,3031.2Z"/><path id="_Path_21" data-name="&lt;Path&gt;" class="cls-1" d="M2479.994,3022.792a24.517,24.517,0,1,0,24.6,24.492A24.485,24.485,0,0,0,2479.994,3022.792Z"/><path id="_Path_22" data-name="&lt;Path&gt;" class="cls-1" d="M2366.211,3002.025a28.029,28.029,0,1,0,28.043,27.986A28,28,0,0,0,2366.211,3002.025Z"/><path id="_Path_23" data-name="&lt;Path&gt;" class="cls-1" d="M2255.477,2967.01a31.5,31.5,0,1,0,31.543,31.461A31.552,31.552,0,0,0,2255.477,2967.01Z"/><path id="_Path_24" data-name="&lt;Path&gt;" class="cls-1" d="M2149.911,2917.7a35.027,35.027,0,1,0,34.986,35.015A34.992,34.992,0,0,0,2149.911,2917.7Z"/><path id="_Path_25" data-name="&lt;Path&gt;" class="cls-1" d="M2089.771,2893.376a38.567,38.567,0,1,0-38.54,38.537A38.491,38.491,0,0,0,2089.771,2893.376Z"/><path id="_Path_26" data-name="&lt;Path&gt;" class="cls-1" d="M1961.271,2779.675a42.009,42.009,0,1,0,41.981,41.98A42.124,42.124,0,0,0,1961.271,2779.675Z"/><path id="_Path_27" data-name="&lt;Path&gt;" class="cls-1" d="M1881.36,2693.238A45.579,45.579,0,1,0,1926.9,2738.8,45.551,45.551,0,0,0,1881.36,2693.238Z"/><path id="_Path_28" data-name="&lt;Path&gt;" class="cls-1" d="M1813,2695.321a49.063,49.063,0,1,0-49.035-49.091A48.964,48.964,0,0,0,1813,2695.321Z"/><path id="_Path_29" data-name="&lt;Path&gt;" class="cls-1" d="M1809.666,2545.605a52.5,52.5,0,1,0-52.532,52.535A52.546,52.546,0,0,0,1809.666,2545.605Z"/><path id="_Path_30" data-name="&lt;Path&gt;" class="cls-1" d="M3555.344,2107.96a3.189,3.189,0,0,0-3.193,3.082,3.27,3.27,0,0,0,3.193,3.219,3.165,3.165,0,0,0,3.11-3.219A3.082,3.082,0,0,0,3555.344,2107.96Z"/><path id="_Path_31" data-name="&lt;Path&gt;" class="cls-1" d="M3521.108,2214.746a6.248,6.248,0,1,0,6.221,6.221A6.211,6.211,0,0,0,3521.108,2214.746Z"/><path id="_Path_32" data-name="&lt;Path&gt;" class="cls-1" d="M3475.46,2317.259a9.44,9.44,0,1,0,9.5,9.411A9.431,9.431,0,0,0,3475.46,2317.259Z"/><path id="_Path_33" data-name="&lt;Path&gt;" class="cls-1" d="M3419.1,2414.552a12.507,12.507,0,1,0,12.549,12.494A12.491,12.491,0,0,0,3419.1,2414.552Z"/><path id="_Path_34" data-name="&lt;Path&gt;" class="cls-1" d="M3352.43,2505.18a15.688,15.688,0,1,0,15.715,15.743A15.756,15.756,0,0,0,3352.43,2505.18Z"/><path id="_Path_35" data-name="&lt;Path&gt;" class="cls-1" d="M3276.212,2588.31a18.839,18.839,0,1,0,18.825,18.825A18.806,18.806,0,0,0,3276.212,2588.31Z"/><path id="_Path_36" data-name="&lt;Path&gt;" class="cls-1" d="M3191.386,2663.085a21.949,21.949,0,1,0,22.018,21.879A21.861,21.861,0,0,0,3191.386,2663.085Z"/><path id="_Path_37" data-name="&lt;Path&gt;" class="cls-1" d="M3098.759,2728.141a25.127,25.127,0,1,0,24.989,25.154A25.2,25.2,0,0,0,3098.759,2728.141Z"/><path id="_Path_38" data-name="&lt;Path&gt;" class="cls-1" d="M2998.22,2781.034a28.252,28.252,0,1,0,28.211,28.211A28.322,28.322,0,0,0,2998.22,2781.034Z"/><path id="_Path_39" data-name="&lt;Path&gt;" class="cls-1" d="M2891.1,2820.157a31.431,31.431,0,1,0,31.322,31.375A31.385,31.385,0,0,0,2891.1,2820.157Z"/><path id="_Path_40" data-name="&lt;Path&gt;" class="cls-1" d="M2779.424,2844.867a34.541,34.541,0,1,0,34.485,34.568A34.61,34.61,0,0,0,2779.424,2844.867Z"/><path id="_Path_41" data-name="&lt;Path&gt;" class="cls-1" d="M2665.026,2854.643a37.65,37.65,0,1,0,37.653,37.732A37.7,37.7,0,0,0,2665.026,2854.643Z"/><path id="_Path_42" data-name="&lt;Path&gt;" class="cls-1" d="M2590.727,2890.237A40.748,40.748,0,1,0,2549.909,2931,40.855,40.855,0,0,0,2590.727,2890.237Z"/><path id="_Path_43" data-name="&lt;Path&gt;" class="cls-1" d="M2480.1,2873.189a43.925,43.925,0,1,0-43.954,43.9A43.911,43.911,0,0,0,2480.1,2873.189Z"/><path id="_Path_44" data-name="&lt;Path&gt;" class="cls-1" d="M2372.65,2841.342a47.1,47.1,0,1,0-47.118,47.118A47.091,47.091,0,0,0,2372.65,2841.342Z"/><path id="_Path_45" data-name="&lt;Path&gt;" class="cls-1" d="M2270.14,2795.39a50.173,50.173,0,1,0-50.146,50.2A50.115,50.115,0,0,0,2270.14,2795.39Z"/><path id="_Path_46" data-name="&lt;Path&gt;" class="cls-1" d="M3289.706,1265.787a3.125,3.125,0,1,0,0-6.246,3.124,3.124,0,0,0,0,6.246Z"/><path id="_Path_47" data-name="&lt;Path&gt;" class="cls-1" d="M3343.352,1370.856a6.289,6.289,0,1,0-6.275-6.3A6.213,6.213,0,0,0,3343.352,1370.856Z"/><path id="_Path_48" data-name="&lt;Path&gt;" class="cls-1" d="M3385.8,1480.946a9.384,9.384,0,1,0-9.385-9.385A9.379,9.379,0,0,0,3385.8,1480.946Z"/><path id="_Path_49" data-name="&lt;Path&gt;" class="cls-1" d="M3416.9,1594.926a12.565,12.565,0,1,0-12.524-12.522A12.507,12.507,0,0,0,3416.9,1594.926Z"/><path id="_Path_50" data-name="&lt;Path&gt;" class="cls-1" d="M3420.372,1695.912a15.689,15.689,0,1,0,15.661-15.743A15.726,15.726,0,0,0,3420.372,1695.912Z"/><path id="_Path_51" data-name="&lt;Path&gt;" class="cls-1" d="M3443.2,1791.926a18.8,18.8,0,1,0,18.854,18.853A18.846,18.846,0,0,0,3443.2,1791.926Z"/><path id="_Path_52" data-name="&lt;Path&gt;" class="cls-1" d="M3438.2,1903.8a22,22,0,1,0,22.017,21.964A21.94,21.94,0,0,0,3438.2,1903.8Z"/><path id="_Path_53" data-name="&lt;Path&gt;" class="cls-1" d="M3421.012,2014.525a25.088,25.088,0,1,0,25.157,25.1A25.047,25.047,0,0,0,3421.012,2014.525Z"/><path id="_Path_54" data-name="&lt;Path&gt;" class="cls-1" d="M3417.708,2150.33a28.266,28.266,0,1,0-28.21,28.265A28.154,28.154,0,0,0,3417.708,2150.33Z"/><path id="_Path_55" data-name="&lt;Path&gt;" class="cls-1" d="M3343.627,2224.575A31.377,31.377,0,1,0,3375,2255.951,31.33,31.33,0,0,0,3343.627,2224.575Z"/><path id="_Path_56" data-name="&lt;Path&gt;" class="cls-1" d="M3284.374,2320.145a34.485,34.485,0,1,0,34.457,34.485A34.488,34.488,0,0,0,3284.374,2320.145Z"/><path id="_Path_57" data-name="&lt;Path&gt;" class="cls-1" d="M3212.628,2407a37.637,37.637,0,1,0,37.622,37.568A37.566,37.566,0,0,0,3212.628,2407Z"/><path id="_Path_58" data-name="&lt;Path&gt;" class="cls-1" d="M3129.774,2483.66a40.8,40.8,0,1,0,40.817,40.843A40.789,40.789,0,0,0,3129.774,2483.66Z"/><path id="_Path_59" data-name="&lt;Path&gt;" class="cls-1" d="M3037.257,2548.937a43.9,43.9,0,1,0,43.928,43.954A43.916,43.916,0,0,0,3037.257,2548.937Z"/><path id="_Path_60" data-name="&lt;Path&gt;" class="cls-1" d="M2936.578,2601.5a47.091,47.091,0,1,0,47.064,47.118A47.083,47.083,0,0,0,2936.578,2601.5Z"/><path id="_Path_61" data-name="&lt;Path&gt;" class="cls-1" d="M2829.456,2640.567a50.2,50.2,0,1,0,50.257,50.2A50.248,50.248,0,0,0,2829.456,2640.567Z"/><path id="_Path_62" data-name="&lt;Path&gt;" class="cls-1" d="M2502.1,853.6a3.148,3.148,0,0,0,3.082-3.168,3.125,3.125,0,0,0-6.249,0A3.148,3.148,0,0,0,2502.1,853.6Z"/><path id="_Path_63" data-name="&lt;Path&gt;" class="cls-1" d="M2611.994,890.975a6.275,6.275,0,1,0-6.332-6.3A6.281,6.281,0,0,0,2611.994,890.975Z"/><path id="_Path_64" data-name="&lt;Path&gt;" class="cls-1" d="M2717.726,939.676a9.412,9.412,0,1,0-9.44-9.385A9.407,9.407,0,0,0,2717.726,939.676Z"/><path id="_Path_65" data-name="&lt;Path&gt;" class="cls-1" d="M2818.072,999.208a12.55,12.55,0,1,0-12.6-12.55A12.515,12.515,0,0,0,2818.072,999.208Z"/><path id="_Path_66" data-name="&lt;Path&gt;" class="cls-1" d="M2911.839,1068.956a15.646,15.646,0,1,0-15.689-15.661A15.62,15.62,0,0,0,2911.839,1068.956Z"/><path id="_Path_67" data-name="&lt;Path&gt;" class="cls-1" d="M2998.108,1148.367a18.854,18.854,0,1,0-18.771-18.882A18.873,18.873,0,0,0,2998.108,1148.367Z"/><path id="_Path_68" data-name="&lt;Path&gt;" class="cls-1" d="M3076.019,1236.329a21.977,21.977,0,1,0-22.046-21.879A21.971,21.971,0,0,0,3076.019,1236.329Z"/><path id="_Path_69" data-name="&lt;Path&gt;" class="cls-1" d="M3144.326,1332.177a25.128,25.128,0,1,0-25.158-25.156A25.1,25.1,0,0,0,3144.326,1332.177Z"/><path id="_Path_70" data-name="&lt;Path&gt;" class="cls-1" d="M3200.3,1435.855a28.211,28.211,0,1,0-28.322-28.211A28.25,28.25,0,0,0,3200.3,1435.855Z"/><path id="_Path_71" data-name="&lt;Path&gt;" class="cls-1" d="M3211.184,1514.656a31.389,31.389,0,1,0,31.4-31.293A31.314,31.314,0,0,0,3211.184,1514.656Z"/><path id="_Path_72" data-name="&lt;Path&gt;" class="cls-1" d="M3235.9,1626.44a34.527,34.527,0,1,0,34.539-34.6A34.446,34.446,0,0,0,3235.9,1626.44Z"/><path id="_Path_73" data-name="&lt;Path&gt;" class="cls-1" d="M3245.615,1740.781a37.692,37.692,0,1,0,37.65-37.706A37.658,37.658,0,0,0,3245.615,1740.781Z"/><path id="_Path_74" data-name="&lt;Path&gt;" class="cls-1" d="M3321.914,1855.844a40.788,40.788,0,1,0-40.815,40.732A40.682,40.682,0,0,0,3321.914,1855.844Z"/><path id="_Path_75" data-name="&lt;Path&gt;" class="cls-1" d="M3307.976,1969.628a43.912,43.912,0,1,0-43.843,43.954A43.911,43.911,0,0,0,3307.976,1969.628Z"/><path id="_Path_76" data-name="&lt;Path&gt;" class="cls-1" d="M3279.433,2080.276a47.077,47.077,0,1,0-47.089,47.064A47.085,47.085,0,0,0,3279.433,2080.276Z"/><path id="_Path_77" data-name="&lt;Path&gt;" class="cls-1" d="M3186.362,2135.559a50.229,50.229,0,1,0,50.312,50.229A50.226,50.226,0,0,0,3186.362,2135.559Z"/><path id="_Path_78" data-name="&lt;Path&gt;" class="cls-1" d="M1653.678,1119.1a3.124,3.124,0,0,0,3.111-3.111,3.137,3.137,0,1,0-6.275,0A3.1,3.1,0,0,0,1653.678,1119.1Z"/><path id="_Path_79" data-name="&lt;Path&gt;" class="cls-1" d="M1755.526,1068.705a6.234,6.234,0,1,0-6.278-6.192A6.246,6.246,0,0,0,1755.526,1068.705Z"/><path id="_Path_80" data-name="&lt;Path&gt;" class="cls-1" d="M1862.48,1029.36a9.454,9.454,0,1,0-9.358-9.385A9.385,9.385,0,0,0,1862.48,1029.36Z"/><path id="_Path_81" data-name="&lt;Path&gt;" class="cls-1" d="M1973.321,1001.429a12.55,12.55,0,1,0-12.55-12.55A12.475,12.475,0,0,0,1973.321,1001.429Z"/><path id="_Path_82" data-name="&lt;Path&gt;" class="cls-1" d="M2086.828,985.353a15.675,15.675,0,1,0-15.715-15.689A15.632,15.632,0,0,0,2086.828,985.353Z"/><path id="_Path_83" data-name="&lt;Path&gt;" class="cls-1" d="M2201.723,981.381a18.825,18.825,0,1,0-18.882-18.8A18.754,18.754,0,0,0,2201.723,981.381Z"/><path id="_Path_84" data-name="&lt;Path&gt;" class="cls-1" d="M2316.73,989.433a21.936,21.936,0,1,0-21.907-21.879A21.862,21.862,0,0,0,2316.73,989.433Z"/><path id="_Path_85" data-name="&lt;Path&gt;" class="cls-1" d="M2430.545,1009.813a25.1,25.1,0,1,0-25.046-25.1A25.05,25.05,0,0,0,2430.545,1009.813Z"/><path id="_Path_86" data-name="&lt;Path&gt;" class="cls-1" d="M2541.3,1044.521a28.237,28.237,0,1,0-28.211-28.264A28.368,28.368,0,0,0,2541.3,1044.521Z"/><path id="_Path_87" data-name="&lt;Path&gt;" class="cls-1" d="M2646.9,1093.444a31.375,31.375,0,1,0-31.29-31.375A31.3,31.3,0,0,0,2646.9,1093.444Z"/><path id="_Path_88" data-name="&lt;Path&gt;" class="cls-1" d="M2711.036,1121.351a34.5,34.5,0,1,0,34.514-34.46A34.508,34.508,0,0,0,2711.036,1121.351Z"/><path id="_Path_89" data-name="&lt;Path&gt;" class="cls-1" d="M2835.595,1230.775a37.623,37.623,0,1,0-37.735-37.706A37.676,37.676,0,0,0,2835.595,1230.775Z"/><path id="_Path_90" data-name="&lt;Path&gt;" class="cls-1" d="M2915.422,1316.795a40.816,40.816,0,1,0-40.761-40.789A40.841,40.841,0,0,0,2915.422,1316.795Z"/><path id="_Path_91" data-name="&lt;Path&gt;" class="cls-1" d="M2983.781,1324.568a43.912,43.912,0,1,0,43.925,43.925A43.912,43.912,0,0,0,2983.781,1324.568Z"/><path id="_Path_92" data-name="&lt;Path&gt;" class="cls-1" d="M2992.556,1469.229a47.007,47.007,0,1,0,46.979-47.064A46.961,46.961,0,0,0,2992.556,1469.229Z"/><path id="_Path_93" data-name="&lt;Path&gt;" class="cls-1" d="M3031.539,1576.24a50.186,50.186,0,1,0,50.254-50.146A50.244,50.244,0,0,0,3031.539,1576.24Z"/><path id="_Path_94" data-name="&lt;Path&gt;" class="cls-1" d="M3109.421,1634.55a53.352,53.352,0,1,0,53.339,53.365A53.383,53.383,0,0,0,3109.421,1634.55Z"/><path id="_Path_95" data-name="&lt;Path&gt;" class="cls-1" d="M1241.437,1897.8a5.914,5.914,0,1,0,0,11.828,5.914,5.914,0,0,0,0-11.828Z"/><path id="_Path_96" data-name="&lt;Path&gt;" class="cls-1" d="M1275.729,1781.985a11.828,11.828,0,1,0,11.771,11.857A11.892,11.892,0,0,0,1275.729,1781.985Z"/><path id="_Path_97" data-name="&lt;Path&gt;" class="cls-1" d="M1339.034,1688.136a17.8,17.8,0,1,0-17.852,17.744A17.822,17.822,0,0,0,1339.034,1688.136Z"/><path id="_Path_98" data-name="&lt;Path&gt;" class="cls-1" d="M1377.628,1611.448a23.671,23.671,0,1,0-23.655-23.684A23.731,23.731,0,0,0,1377.628,1611.448Z"/><path id="_Path_99" data-name="&lt;Path&gt;" class="cls-1" d="M1444.322,1523.541a29.585,29.585,0,1,0-29.57-29.572A29.527,29.527,0,0,0,1444.322,1523.541Z"/><path id="_Path_100" data-name="&lt;Path&gt;" class="cls-1" d="M1520.513,1443.129a35.484,35.484,0,1,0-35.484-35.484A35.477,35.477,0,0,0,1520.513,1443.129Z"/><path id="_Path_101" data-name="&lt;Path&gt;" class="cls-1" d="M1605.367,1371.328a41.483,41.483,0,1,0-41.426-41.483A41.446,41.446,0,0,0,1605.367,1371.328Z"/><path id="_Path_102" data-name="&lt;Path&gt;" class="cls-1" d="M1697.828,1308.825a47.354,47.354,0,1,0-47.232-47.314A47.376,47.376,0,0,0,1697.828,1308.825Z"/><path id="_Path_103" data-name="&lt;Path&gt;" class="cls-1" d="M1798.035,1257.986a53.255,53.255,0,1,0-53.228-53.311A53.267,53.267,0,0,0,1798.035,1257.986Z"/><path id="_Path_104" data-name="&lt;Path&gt;" class="cls-1" d="M1904.656,1220.557a59.061,59.061,0,0,0,58.281-50.368,64.878,64.878,0,0,0,110.952-7.384,70.689,70.689,0,0,0,108.952,5.163,76.732,76.732,0,0,0,106.51,18.66,72.6,72.6,0,0,0,9.886,12.772,86.474,86.474,0,0,0-50.478,23.266,82.208,82.208,0,0,0-121.95,12.357,76.837,76.837,0,0,0-47.865-16.576,77.835,77.835,0,0,0-70.472,45.009,73.225,73.225,0,0,0-112.561,44.121,68.641,68.641,0,0,0-104.4,58.585v.25a64.046,64.046,0,0,0-96.069,55.531,65.237,65.237,0,0,0,2.553,17.8,58.884,58.884,0,0,0-30.985-8.939,59.53,59.53,0,1,0,59.5,59.585,61.387,61.387,0,0,0-2.024-14.773,64.047,64.047,0,0,0,99.013-51.423,68.28,68.28,0,0,0,36.707,10.719c1.194,0,2.5-.168,3.776-.168a78.4,78.4,0,0,0-25.461,52.145,75.361,75.361,0,0,0-89.323,74.024,58.6,58.6,0,0,0,.611,8.831,57.955,57.955,0,0,0-8.274-.529,71.323,71.323,0,0,0-71.331,71.331,68.464,68.464,0,0,0,3.747,22.711c-1.445-.054-2.832-.193-4.22-.193a67.275,67.275,0,0,0-57.422,102.65,15.386,15.386,0,0,0-1.942-.111,63.358,63.358,0,0,0-43.26,109.732c-.944,0-1.805-.276-2.667-.276a59.719,59.719,0,1,0,41.762,17.213c1.334.082,2.75.167,4.165.167a63.115,63.115,0,0,0,46.478-20.38c0,.723-.054,1.47-.054,2.167a73.834,73.834,0,0,0,14.327,43.647,69.917,69.917,0,0,0-21.878,119.117,66.493,66.493,0,0,0-3.222,119.393,62.962,62.962,0,0,0,14.466,117.56A59.4,59.4,0,0,0,1687.3,2386.4a57.05,57.05,0,0,0,10.913-1.109,55.369,55.369,0,1,0,16.854-2.832,53.391,53.391,0,0,0-10.19,1,59.267,59.267,0,0,0,42.037-56.586c0-1.5-.332-2.778-.472-4.276a68.017,68.017,0,0,0,35.151,20.52,65.763,65.763,0,0,0,50.228,108.424c.557,0,.973,0,1.445-.025a62.629,62.629,0,0,0,50.758,99.485,64.12,64.12,0,0,0,18.214-2.693,59.622,59.622,0,0,0,49.646,92.542,58.587,58.587,0,0,0,37.039-13.272,56.413,56.413,0,1,0,83.52-2.221,72.969,72.969,0,0,0,21.714-3.747v.776a69.054,69.054,0,0,0,37.6,61.448,48.644,48.644,0,0,0-10.329-1.083,53.933,53.933,0,1,0,25.211,6.525,67.645,67.645,0,0,0,16.547,2.11,68.908,68.908,0,0,0,36.431-10.441,65.788,65.788,0,0,0,113.118,40.1,62.7,62.7,0,0,0,117.23,19.658,59.466,59.466,0,0,0,117.448-5.553,56.321,56.321,0,1,0,57.394-60.2,73.726,73.726,0,0,0,12.743-18.131,68.972,68.972,0,0,0,70.358,17.52,53.349,53.349,0,1,0,29.934-9.164,50.907,50.907,0,0,0-15.274,2.5,69.108,69.108,0,0,0,31.543-43.481,65.262,65.262,0,0,0,42.484,15.6,65.967,65.967,0,0,0,66.025-65.861c0-.5-.164-1-.164-1.416a62.11,62.11,0,0,0,36.706,11.939,62.745,62.745,0,0,0,62.807-62.722,59.805,59.805,0,0,0-2.721-18.214,59.411,59.411,0,0,0,79.355-86.688,55.428,55.428,0,0,0,36.65,13.83,56.477,56.477,0,1,0,0-112.953,55.7,55.7,0,0,0-38.927,15.772,77.178,77.178,0,0,0-3.693-21.853h.639a69.149,69.149,0,0,0,61.5-37.594,54.819,54.819,0,0,0-1.083,10.3,54.031,54.031,0,1,0,6.608-25.185,68.527,68.527,0,0,0,2.109-16.519,69.589,69.589,0,0,0-10.523-36.541,65.767,65.767,0,0,0,40.1-113.09,62.713,62.713,0,0,0,19.684-117.2,59.424,59.424,0,0,0-5.553-117.394,56.858,56.858,0,1,0-10.216-.279c-31.071,2.167-55.727,27.656-55.727,59.253,0,22.465,12.743,41.79,31.07,51.98a62.608,62.608,0,0,0-33.627,105.953,65.754,65.754,0,0,0-47.951,98.459,69.036,69.036,0,0,0-65.36,68.86,65.734,65.734,0,0,0,3.11,19.991,30.809,30.809,0,0,0-3.167-.221,72.207,72.207,0,0,0-72.19,72.192,47.083,47.083,0,0,0,.3,5.163A70.648,70.648,0,0,0,2861,2338.8a75.2,75.2,0,0,0-74.442,64.5,80.893,80.893,0,0,0-20.545-2.806,78.515,78.515,0,0,0-71,45.4,68.691,68.691,0,0,0-106.149,25.35,69,69,0,0,0-111.645,14.048,69.2,69.2,0,0,0-104.179-4.441,69.265,69.265,0,0,0-102.957-27.989,69.188,69.188,0,0,0-95.931-47.783A68.985,68.985,0,0,0,2094.019,2339a69.114,69.114,0,0,0-66.5-84.8,68.932,68.932,0,0,0-44.815-93.989,69.148,69.148,0,0,0-20.187-102.067,69.253,69.253,0,0,0,3.471-107.011,69.628,69.628,0,0,0,36.207-45.148,68.739,68.739,0,0,0-10.577-56.475,69.094,69.094,0,0,0,49.838-90.682,69.186,69.186,0,0,0,71.968-79.358,69.255,69.255,0,0,0,85.354-60.917,69.142,69.142,0,0,0,97.125-37.513,68.324,68.324,0,0,0,53.257,17.466h-.111a68.328,68.328,0,0,0,51.588-31.876,68.916,68.916,0,0,0,104.873,9.607,68.954,68.954,0,0,0,101.984,32.069,69.355,69.355,0,0,0,34.847,48.008h-.139a68.925,68.925,0,0,0,49.507,6.608c1.859,2.582,3.861,5.053,5.914,7.387a67.787,67.787,0,0,0,17.269,41.261,14.28,14.28,0,0,0,1.473,1.387c35.236,36.874,117.062,126.419,101.763,246.284-3.887,29.877,12.882,44.952,34.318,21.879,129.919-140.052,109.592-312.062,106.678-332.053a114.686,114.686,0,0,0-8.413-37.289,113.759,113.759,0,0,0,2.3-22.518,111.242,111.242,0,0,0-44.008-88.573,109.114,109.114,0,0,0,1.97-20.1,106.55,106.55,0,0,0-66.694-98.845,101.861,101.861,0,0,0-86.074-98.655,97.056,97.056,0,0,0-95.348-79.409c-1.751,0-3.361.165-5.22.221a91.794,91.794,0,0,0-87.352-63.5,89.731,89.731,0,0,0-23.073,3.025,87.014,87.014,0,0,0-117.423-42.065,82.289,82.289,0,0,0-122-22.794,76.71,76.71,0,0,0-122.171-3.054,70.864,70.864,0,0,0-119.672,15.464,65.051,65.051,0,0,0-114.395,34.736,59.059,59.059,0,1,0-46.9,94.848Z"/><path id="_Path_105" data-name="&lt;Path&gt;" class="cls-1" d="M1506.964,2747.578a4.554,4.554,0,0,0-4.5,4.609,4.61,4.61,0,0,0,4.5,4.609,4.7,4.7,0,0,0,4.663-4.609A4.643,4.643,0,0,0,1506.964,2747.578Z"/><path id="_Path_106" data-name="&lt;Path&gt;" class="cls-1" d="M1453.543,2641.121a9.125,9.125,0,0,0-9.164,9.107,9.136,9.136,0,1,0,18.271,0A9.078,9.078,0,0,0,1453.543,2641.121Z"/><path id="_Path_107" data-name="&lt;Path&gt;" class="cls-1" d="M1410.977,2529.5a13.744,13.744,0,1,0,13.744,13.8A13.788,13.788,0,0,0,1410.977,2529.5Z"/><path id="_Path_108" data-name="&lt;Path&gt;" class="cls-1" d="M1379.906,2414.106a18.3,18.3,0,1,0,18.325,18.3A18.278,18.278,0,0,0,1379.906,2414.106Z"/><path id="_Path_109" data-name="&lt;Path&gt;" class="cls-1" d="M1383.571,2318.979a22.907,22.907,0,1,0-22.851,22.851A22.9,22.9,0,0,0,1383.571,2318.979Z"/><path id="_Path_110" data-name="&lt;Path&gt;" class="cls-1" d="M1381.071,2204.03a27.488,27.488,0,1,0-27.488,27.543A27.456,27.456,0,0,0,1381.071,2204.03Z"/><path id="_Path_111" data-name="&lt;Path&gt;" class="cls-1" d="M1326.513,2089.078a32.028,32.028,0,1,0,32.069-32.043A31.965,31.965,0,0,0,1326.513,2089.078Z"/><path id="_Path_112" data-name="&lt;Path&gt;" class="cls-1" d="M1375.8,2011.861a36.638,36.638,0,1,0-36.707-36.652A36.623,36.623,0,0,0,1375.8,2011.861Z"/><path id="_Path_113" data-name="&lt;Path&gt;" class="cls-1" d="M1407.34,1823.3a41.206,41.206,0,1,0,41.147,41.232A41.233,41.233,0,0,0,1407.34,1823.3Z"/><path id="_Path_114" data-name="&lt;Path&gt;" class="cls-1" d="M1453.071,1804.7a45.813,45.813,0,1,0-45.731-45.813A45.828,45.828,0,0,0,1453.071,1804.7Z"/><path id="_Path_115" data-name="&lt;Path&gt;" class="cls-1" d="M1512.406,1710.6a50.382,50.382,0,1,0-50.479-50.34A50.315,50.315,0,0,0,1512.406,1710.6Z"/><path id="_Path_116" data-name="&lt;Path&gt;" class="cls-1" d="M1639.072,1570.241a54.948,54.948,0,1,0-54.973,54.923A55.006,55.006,0,0,0,1639.072,1570.241Z"/></g><g id="_Group_" data-name="&lt;Group&gt;"><path id="_Path_117" data-name="&lt;Path&gt;" class="cls-1" d="M612.76,3944.233a230.477,230.477,0,0,1-91.547-18.546,235.871,235.871,0,0,1-74.523-50.561,239.8,239.8,0,0,1-50.09-75.164,237.759,237.759,0,0,1,0-183.866,236.706,236.706,0,0,1,124.5-125.972,232.406,232.406,0,0,1,184.424.332,243.763,243.763,0,0,1,75.522,52.338,45.038,45.038,0,0,1,10.441,17.327,26.815,26.815,0,0,1-3,23.377c-5.331,8-13.1,12.385-23.072,13.051h-.333c-11,0-18.686-3.222-24.879-9.55a310.668,310.668,0,0,0-57.78-38.373,149.84,149.84,0,0,0-69.665-16.937,170.44,170.44,0,0,0-68.056,13.938,175.259,175.259,0,0,0-55.42,38.151,182.077,182.077,0,0,0-37.039,56.253,175.731,175.731,0,0,0,0,136.138,174.652,174.652,0,0,0,92.516,93.6,169.581,169.581,0,0,0,68,13.938,175.244,175.244,0,0,0,71.135-14.6,172.3,172.3,0,0,0,56.836-40.485,35.541,35.541,0,0,1,18.715-10.938,30.614,30.614,0,0,1,7.054-.89,27.014,27.014,0,0,1,15.439,4.942c7.773,6.332,11.385,14.33,11.385,24.185,0,9.442-2.889,17.383-8.552,23.63a228.073,228.073,0,0,1-76.831,55.031C678.593,3937.572,646.55,3944.233,612.76,3944.233Z"/><path id="_Compound_Path_" data-name="&lt;Compound Path&gt;" class="cls-1" d="M1103.967,3943.457a231.154,231.154,0,0,1-91.626-18.464,235.333,235.333,0,0,1-124.67-124.642c-12.218-28.378-18.381-59.2-18.381-91.572,0-32.319,6.164-63.2,18.381-91.572a244.214,244.214,0,0,1,50.229-74.8,235.387,235.387,0,0,1,74.441-50.533,235.975,235.975,0,0,1,183.145,0,236.63,236.63,0,0,1,125.364,125.336,235.672,235.672,0,0,1,0,183.144,234.215,234.215,0,0,1-50.507,74.524,243.812,243.812,0,0,1-74.857,50.118A230.626,230.626,0,0,1,1103.967,3943.457Zm0-409.606a173.8,173.8,0,0,0-68.024,13.579,170.974,170.974,0,0,0-55.477,37.346,179.115,179.115,0,0,0-37.153,55.921,178.284,178.284,0,0,0,0,136.08,175.076,175.076,0,0,0,228.628,92.6,178.839,178.839,0,0,0,55.921-37.149,176.113,176.113,0,0,0,37.429-191.475,179.451,179.451,0,0,0-37.486-55.921,176.226,176.226,0,0,0-55.864-37.4A174.148,174.148,0,0,0,1103.967,3533.852Z"/><path id="_Path_118" data-name="&lt;Path&gt;" class="cls-1" d="M1755.3,3944.9a30.2,30.2,0,0,1-30.263-30.238v-269.3a108.294,108.294,0,0,0-8.885-43.814,116.236,116.236,0,0,0-61.029-60.862,110.921,110.921,0,0,0-87.518,0,114.2,114.2,0,0,0-35.873,24.546,119.7,119.7,0,0,0-24.324,36.373,109.742,109.742,0,0,0-8.942,43.757v269.3a30.265,30.265,0,1,1-60.53,0v-269.3a172.827,172.827,0,0,1,13.469-67.609,170.286,170.286,0,0,1,37.121-55.31,174.444,174.444,0,0,1,55.256-37.289,170.751,170.751,0,0,1,135.275.054,175.145,175.145,0,0,1,92.627,92.462,168.573,168.573,0,0,1,13.827,67.692v269.3a29.306,29.306,0,0,1-8.717,21.407A29.917,29.917,0,0,1,1755.3,3944.9Z"/><path id="_Path_119" data-name="&lt;Path&gt;" class="cls-1" d="M2052.621,3944.9a190.362,190.362,0,0,1-65.417-11.163,176.23,176.23,0,0,1-53.865-31.042,145.723,145.723,0,0,1-36.513-46.4,125.9,125.9,0,0,1-13.355-57.061,28.82,28.82,0,1,1,57.641,0,71.069,71.069,0,0,0,8.3,33.6A89.165,89.165,0,0,0,1972.6,3860.6a120.894,120.894,0,0,0,35.318,18.939,137.45,137.45,0,0,0,43.982,6.995,140.191,140.191,0,0,0,44.426-7.023,128.075,128.075,0,0,0,36.428-19.075,82.612,82.612,0,0,0,23.769-27.656,60.657,60.657,0,0,0,6.94-32.985,67.465,67.465,0,0,0-10.219-30.766,103.807,103.807,0,0,0-23.823-26.434,134.445,134.445,0,0,0-33.985-19.434,193.193,193.193,0,0,0-40.51-11.359,236.792,236.792,0,0,1-58.724-11.688,192.528,192.528,0,0,1-50.146-24.99,128.43,128.43,0,0,1-35.262-36.43,86.781,86.781,0,0,1-13.773-47.48,94.211,94.211,0,0,1,12.829-47.868c8.331-14.467,20.018-27.292,34.6-38.094,14.3-10.662,31.236-19.158,50.45-25.432a205.97,205.97,0,0,1,122.586,0c19.021,6.275,35.984,14.771,50.424,25.432,14.743,11.052,26.32,23.8,34.541,38.094a93.687,93.687,0,0,1,12.939,47.868,30.147,30.147,0,0,1-30.266,30.209,27.717,27.717,0,0,1-21.378-9.439c-5.248-5.8-8.163-13.551-8.831-23.073-.415-7.054-2.886-13.744-7.745-20.352a75.665,75.665,0,0,0-20.853-18.882,117.848,117.848,0,0,0-31.71-13.605,145.741,145.741,0,0,0-38.373-5.081,151.178,151.178,0,0,0-39.538,5.081,113.085,113.085,0,0,0-31.653,13.548,71.017,71.017,0,0,0-20.38,19.855,39.391,39.391,0,0,0-7.162,22.49c0,7.441,2.775,14.134,8.606,20.52a87.976,87.976,0,0,0,24.35,18.492,187.413,187.413,0,0,0,33.181,13.744,202.207,202.207,0,0,0,33.68,7.523,238.882,238.882,0,0,1,63.558,15.828c20.1,8.274,37.733,18.658,52.367,30.875a139.461,139.461,0,0,1,35.54,44.315,121.368,121.368,0,0,1,12.937,55.309,127.659,127.659,0,0,1-13.354,57.365,141.515,141.515,0,0,1-36.513,46.478,184.917,184.917,0,0,1-119.225,42.484Z"/><path id="_Path_120" data-name="&lt;Path&gt;" class="cls-1" d="M2357.8,3944.9a30.154,30.154,0,0,1-30.3-30.238V3501.533a29.6,29.6,0,0,1,8.885-21.489,29.1,29.1,0,0,1,21.41-8.831h252.17a30.056,30.056,0,0,1,30.18,30.32,28.993,28.993,0,0,1-8.774,21.324,29.429,29.429,0,0,1-21.406,8.831H2388.061v144.661h157.072a30.265,30.265,0,1,1,0,60.53H2388.061v147.493h221.907a30,30,0,0,1,30.18,30.292,29.135,29.135,0,0,1-8.774,21.407,29.441,29.441,0,0,1-21.406,8.831Z"/><path id="_Path_121" data-name="&lt;Path&gt;" class="cls-1" d="M3038.785,3944.9a30.238,30.238,0,0,1-30.346-30.238v-269.3a108.294,108.294,0,0,0-8.885-43.814,116.384,116.384,0,0,0-60.976-60.862,110.78,110.78,0,0,0-87.461,0,112.075,112.075,0,0,0-35.876,24.546,121.538,121.538,0,0,0-24.432,36.316,110.657,110.657,0,0,0-8.885,43.814v269.3a30.147,30.147,0,0,1-30.32,30.238,29.5,29.5,0,0,1-21.353-8.774,29.178,29.178,0,0,1-8.8-21.464v-269.3a173.718,173.718,0,0,1,105.734-160.236,171.312,171.312,0,0,1,135.44.083,174.354,174.354,0,0,1,55.145,37.235,176.245,176.245,0,0,1,37.318,55.227,168.272,168.272,0,0,1,13.884,67.692v269.3a30.1,30.1,0,0,1-30.183,30.238Z"/><path id="_Path_122" data-name="&lt;Path&gt;" class="cls-1" d="M3336.13,3944.9a190.588,190.588,0,0,1-65.415-11.163,174.944,174.944,0,0,1-53.868-31.042,148.245,148.245,0,0,1-36.6-46.37,127.14,127.14,0,0,1-13.355-57.086,28.246,28.246,0,0,1,8.414-20.323,28.9,28.9,0,0,1,49.367,20.323,70.849,70.849,0,0,0,8.22,33.542,87.457,87.457,0,0,0,23.13,27.738,119.2,119.2,0,0,0,35.344,19.021,137.064,137.064,0,0,0,44.039,6.995,140.185,140.185,0,0,0,44.425-7.023,127.032,127.032,0,0,0,36.374-19.075,85.017,85.017,0,0,0,23.849-27.656,60.349,60.349,0,0,0,6.858-32.985,68.141,68.141,0,0,0-10.216-30.766,103.529,103.529,0,0,0-23.8-26.459,131.411,131.411,0,0,0-33.985-19.408,190.01,190.01,0,0,0-40.564-11.359,234.917,234.917,0,0,1-58.642-11.688,191.585,191.585,0,0,1-50.2-24.99,129.1,129.1,0,0,1-35.234-36.43,86.874,86.874,0,0,1-13.8-47.48,96.044,96.044,0,0,1,12.829-47.868,126.184,126.184,0,0,1,34.653-38.094c14.381-10.662,31.289-19.158,50.365-25.432a206.155,206.155,0,0,1,122.643,0c19.076,6.275,36.013,14.771,50.45,25.432,14.552,10.8,26.269,23.627,34.543,38.094a94.484,94.484,0,0,1,12.939,47.868,29.56,29.56,0,0,1-8.971,21.436,28.553,28.553,0,0,1-21.3,8.774,27.759,27.759,0,0,1-21.464-9.5c-5.192-5.664-8.163-13.437-8.746-22.962a37.5,37.5,0,0,0-7.773-20.352c-5.055-6.94-12.135-13.326-20.881-18.936a116.477,116.477,0,0,0-31.682-13.605,140.831,140.831,0,0,0-38.455-5.081,152.585,152.585,0,0,0-39.538,5.081c-12.135,3.276-22.714,7.8-31.543,13.548a71.356,71.356,0,0,0-20.38,19.855,39.471,39.471,0,0,0-7.19,22.49c0,7.469,2.861,14.134,8.55,20.52a90.581,90.581,0,0,0,24.434,18.492,184.243,184.243,0,0,0,33.238,13.744,206.025,206.025,0,0,0,33.542,7.523,238.011,238.011,0,0,1,63.583,15.828,199.733,199.733,0,0,1,52.421,30.875,140.773,140.773,0,0,1,35.43,44.2,121,121,0,0,1,13.051,55.42,128.061,128.061,0,0,1-13.326,57.365,143.491,143.491,0,0,1-36.6,46.478A184.931,184.931,0,0,1,3336.13,3944.9Z"/><path id="_Path_123" data-name="&lt;Path&gt;" class="cls-1" d="M3791.881,3944.9a30.147,30.147,0,0,1-30.292-30.238V3760.7L3575.28,3520.025a29.572,29.572,0,0,1-6.526-21.768,27.911,27.911,0,0,1,10.663-20.212,30.414,30.414,0,0,1,19.436-6.886c10.495.722,17.438,4.5,22.658,10.938l170.483,219.185,173.7-219.157a28.111,28.111,0,0,1,20.326-10.855h.5c9.3,0,15.745,2.277,21.324,6.718a28.449,28.449,0,0,1,10.941,20.352,30.784,30.784,0,0,1-6.775,21.768l-189.863,240.649v153.907a29.135,29.135,0,0,1-8.8,21.464A29.664,29.664,0,0,1,3791.881,3944.9Z"/><path id="_Path_124" data-name="&lt;Path&gt;" class="cls-1" d="M4246.688,3944.9a191.2,191.2,0,0,1-65.5-11.163,175.994,175.994,0,0,1-53.811-31.042,148.551,148.551,0,0,1-36.566-46.4,125.794,125.794,0,0,1-13.3-57.061,28.8,28.8,0,0,1,49.231-20.323,28.115,28.115,0,0,1,8.441,20.323,71.66,71.66,0,0,0,8.217,33.6,89.379,89.379,0,0,0,23.269,27.764,119.559,119.559,0,0,0,35.29,18.939,136.588,136.588,0,0,0,43.982,6.995,140.2,140.2,0,0,0,44.451-7.023,127.514,127.514,0,0,0,36.4-19.075,85.174,85.174,0,0,0,23.795-27.656,59.66,59.66,0,0,0,6.915-32.985,69.333,69.333,0,0,0-10.162-30.766,106.487,106.487,0,0,0-23.852-26.459,133.309,133.309,0,0,0-33.985-19.408,193.994,193.994,0,0,0-40.539-11.359,234.587,234.587,0,0,1-58.7-11.688,192.158,192.158,0,0,1-50.229-24.99,128.961,128.961,0,0,1-35.207-36.43,86.818,86.818,0,0,1-13.744-47.48,95.425,95.425,0,0,1,12.772-47.868,126.78,126.78,0,0,1,34.653-38.094c14.327-10.662,31.264-19.158,50.365-25.432a206.25,206.25,0,0,1,122.672,0c19.158,6.275,36.123,14.882,50.311,25.486a124.484,124.484,0,0,1,34.736,38.04,95.254,95.254,0,0,1,12.884,47.868,30.287,30.287,0,0,1-30.321,30.209,27.4,27.4,0,0,1-21.324-9.439c-5.248-5.664-8.3-13.44-8.94-23.019-.389-7.191-2.86-13.8-7.665-20.352-5.191-7.108-12.021-13.326-20.963-18.936a117.054,117.054,0,0,0-31.6-13.605,141.151,141.151,0,0,0-38.456-5.081,151.442,151.442,0,0,0-39.512,5.081,110.063,110.063,0,0,0-31.543,13.548,69.391,69.391,0,0,0-20.406,19.855,39.264,39.264,0,0,0-7.193,22.49c0,7.441,2.721,14.134,8.552,20.52a89.956,89.956,0,0,0,24.406,18.492,184.524,184.524,0,0,0,33.181,13.744,206.157,206.157,0,0,0,33.624,7.523,238.693,238.693,0,0,1,63.611,15.828c20.048,8.274,37.651,18.6,52.4,30.875a139.164,139.164,0,0,1,35.512,44.315,121.952,121.952,0,0,1,13,55.309,128.117,128.117,0,0,1-13.382,57.365,142.747,142.747,0,0,1-36.6,46.478,185.071,185.071,0,0,1-119.172,42.484Z"/></g></g></svg>