<?xml version="1.0" encoding="utf-8"?>
<!-- Generator: Adobe Illustrator 22.1.0, SVG Export Plug-In . SVG Version: 6.00 Build 0)  -->
<svg version="1.1" id="Layer_1" xmlns="http://www.w3.org/2000/svg" xmlns:xlink="http://www.w3.org/1999/xlink" x="0px" y="0px"
	 viewBox="0 0 841.9 841.9" style="enable-background:new 0 0 841.9 841.9;" xml:space="preserve">
<style type="text/css">
	.st0{fill:#FFFFFF;}
</style>
<title>Artboard 1</title>
<path class="st0" d="M596.1,386.9c-8.4-79.4-75.8-140.7-156.4-141.1c-87,0.4-157.6,70.6-157.6,157.2v118.3h0.4
	c3.1-8,7.9-15.3,14-21.3V399.8c0-79.1,64.1-143.1,143.2-143.2c72.2,0,133.1,54.5,142,125.1c-1.2,0-2.4,0.4-3.6,0.4
	c-4.9-5.7-10.9-10.4-17.6-13.6c-14-54.5-63.8-93.4-120.3-93.8h-0.4c-68.6,0-124.3,55.3-125.1,123.5v89.5c4.5-2,9.2-3.4,14-4.3v-79.6
	c0-61,49.3-110.3,110.3-110.7c47.3,0,89.4,30.9,104.3,74.6c-2-0.3-4-0.5-6-0.4c-4.2,0.2-8.3,0.7-12.4,1.6
	c-13.8-34.7-47.3-57.5-84.6-57.8h-0.8c-50.9,0-92.2,41.3-92.2,92.2v79.5c5.1,0.6,10.1,1.9,14.8,3.8v-84.1
	c0.4-42.5,34.9-76.6,77.4-77c31.9-0.2,60.5,19.3,72.2,48.9c-5.4,3.2-10.3,7.3-14.4,12h-0.8c-7.5-25.2-30.7-42.5-57-42.5h-0.8
	c-32,0.6-57.7,26.5-58.1,58.5v95.5c6.1,5.5,11,12.1,14.4,19.5V403.4c-0.1-24.7,19.8-44.8,44.5-44.9c18-0.1,34.3,10.7,41.4,27.3
	c-18.9,3.6-31.3,21.8-27.7,40.7c3.2,16.5,17.7,28.4,34.5,28.3c3.3,0.1,6.5-0.5,9.6-1.6c18.4,22.4,51.5,25.7,73.9,7.3
	c2.4-2,4.6-4.2,6.7-6.5c2.4,0.5,4.8,0.7,7.2,0.8c19.2,0,34.8-15.5,34.9-34.7C619.8,405.1,610.2,391.7,596.1,386.9L596.1,386.9z
	 M584.9,440.3c-2.5,0-4.9-0.4-7.2-1.2c-3.1-1.2-6.7,0-8.4,2.8c-12,17.3-35.9,21.7-53.2,9.6c-4-2.8-7.5-6.3-10.2-10.4
	c-1.3-2-3.6-3.2-6-3.2c-1.1,0.1-2.2,0.3-3.2,0.8c-2.8,1.5-6,2.2-9.2,2c-11.3-0.2-20.3-9.6-20-20.9c0.2-10.9,9.1-19.8,20-20
	c3.2,0,6.3,0.7,9.2,2c3.3,1.5,7.1,0.5,9.2-2.4c7-10.9,19.1-17.4,32.1-17.2c12.5,0,24.2,6.1,31.3,16.4c2,2.8,5.6,4,8.4,2.8
	c2.3-0.8,4.8-1.2,7.2-1.2c11.3,0.1,20.4,9.2,20.5,20.5C605.3,431,596.1,440.3,584.9,440.3L584.9,440.3z"/>
<g id="Consensys">
	<g id="main-Logo">
		<path id="_Path_" class="st0" d="M335.8,604.6c-0.1,0-0.2,0.1-0.2,0.2c0,0,0,0,0,0c0,0.1,0.1,0.2,0.2,0.2c0.1,0,0.2-0.1,0.2-0.2
			l0,0C336,604.7,335.9,604.6,335.8,604.6C335.8,604.6,335.8,604.6,335.8,604.6z"/>
		<path id="_Path_2" class="st0" d="M330.5,602.7c-0.2,0-0.4,0.2-0.4,0.4l0,0l0,0c0,0.2,0.2,0.4,0.4,0.3c0.2,0,0.3-0.2,0.3-0.3
			C330.9,602.9,330.7,602.7,330.5,602.7L330.5,602.7z"/>
		<path id="_Path_3" class="st0" d="M325.4,600.3c-0.3,0-0.6,0.3-0.6,0.6c0,0,0,0,0,0c0,0.3,0.3,0.6,0.6,0.6s0.6-0.3,0.6-0.6
			C326,600.6,325.7,600.3,325.4,600.3C325.4,600.3,325.4,600.3,325.4,600.3L325.4,600.3z"/>
		<path id="_Path_4" class="st0" d="M320.5,597.4c-0.4,0-0.8,0.3-0.8,0.8c0,0.4,0.3,0.8,0.8,0.8c0.4,0,0.8-0.3,0.8-0.8
			C321.3,597.7,320.9,597.4,320.5,597.4z"/>
		<path id="_Path_5" class="st0" d="M316,594c-0.6,0-1,0.4-1,1s0.4,1,1,1s1-0.4,1-1l0,0C317,594.4,316.6,594,316,594z"/>
		<path id="_Path_6" class="st0" d="M311.8,590.1c-0.6,0-1.2,0.5-1.2,1.1s0.5,1.2,1.1,1.2c0,0,0,0,0,0c0.6,0,1.1-0.5,1.1-1.2
			C312.9,590.6,312.4,590.1,311.8,590.1z"/>
		<path id="_Path_7" class="st0" d="M308,585.8c-0.7,0-1.3,0.6-1.3,1.3s0.6,1.3,1.3,1.3c0.7,0,1.3-0.6,1.3-1.3
			C309.4,586.4,308.8,585.8,308,585.8C308,585.8,308,585.8,308,585.8z"/>
		<path id="_Path_8" class="st0" d="M304.7,581.1c-0.9,0-1.5,0.7-1.5,1.5s0.7,1.5,1.5,1.5c0.9,0,1.5-0.7,1.5-1.5c0,0,0,0,0,0
			C306.2,581.8,305.6,581.1,304.7,581.1z"/>
		<path id="_Path_9" class="st0" d="M303.7,577.8c0-1-0.8-1.7-1.7-1.7c-1,0-1.7,0.8-1.7,1.7c0,1,0.8,1.7,1.7,1.7l0,0
			C302.9,579.5,303.7,578.7,303.7,577.8C303.7,577.8,303.7,577.8,303.7,577.8z"/>
		<path id="_Path_10" class="st0" d="M301.9,572.6c0-1.1-0.9-1.9-1.9-1.9c-1.1,0-1.9,0.9-1.9,1.9c0,1.1,0.9,1.9,1.9,1.9c0,0,0,0,0,0
			C301,574.5,301.9,573.7,301.9,572.6C301.9,572.6,301.9,572.6,301.9,572.6z"/>
		<path id="_Path_11" class="st0" d="M300.7,567.2c0-1.2-0.9-2.1-2.1-2.1s-2.1,0.9-2.1,2.1c0,1.2,0.9,2.1,2.1,2.1c0,0,0,0,0,0
			C299.8,569.3,300.7,568.3,300.7,567.2z"/>
		<path id="_Path_12" class="st0" d="M300.3,561.6c0-1.3-1.1-2.3-2.3-2.3c-1.3,0-2.3,1.1-2.3,2.3c0,1.3,1.1,2.3,2.3,2.3l0,0
			C299.3,564,300.3,563,300.3,561.6L300.3,561.6z"/>
		<path id="_Path_13" class="st0" d="M298.1,558.6c1.4,0,2.5-1.1,2.5-2.5s-1.1-2.5-2.5-2.5s-2.5,1.1-2.5,2.5
			S296.7,558.6,298.1,558.6z"/>
		<path id="_Path_14" class="st0" d="M296.2,550.6c0,1.5,1.2,2.7,2.7,2.7s2.7-1.2,2.7-2.7s-1.2-2.7-2.7-2.7
			C297.4,547.9,296.2,549.1,296.2,550.6z"/>
		<path id="_Path_15" class="st0" d="M376.9,591.7c-0.1,0-0.2,0.1-0.2,0.2c0,0.1,0.1,0.2,0.2,0.2c0.1,0,0.2-0.1,0.2-0.2l0,0
			C377.1,591.8,377,591.7,376.9,591.7z"/>
		<path id="_Path_16" class="st0" d="M372,594.2c-0.2,0-0.3,0.1-0.4,0.3c0,0,0,0,0,0l0,0c0,0.2,0.2,0.3,0.3,0.3
			c0.2,0,0.3-0.1,0.4-0.3c0,0,0,0,0,0l0,0C372.3,594.3,372.2,594.2,372,594.2C372,594.2,372,594.2,372,594.2z"/>
		<path id="_Path_17" class="st0" d="M366.8,596c-0.3,0-0.5,0.2-0.5,0.5l0,0c0,0.3,0.2,0.5,0.5,0.5c0,0,0,0,0,0
			c0.3,0,0.5-0.2,0.5-0.5l0,0l0,0C367.3,596.3,367.1,596,366.8,596C366.8,596,366.8,596,366.8,596z"/>
		<path id="_Path_18" class="st0" d="M361.4,597.4c-0.4,0-0.7,0.3-0.7,0.7c0,0.4,0.3,0.7,0.7,0.7c0.4,0,0.7-0.3,0.7-0.7l0,0
			C362.1,597.7,361.8,597.4,361.4,597.4z"/>
		<path id="_Path_19" class="st0" d="M355.9,598.1c-0.5,0-0.9,0.4-0.9,0.8c0,0.5,0.4,0.9,0.9,0.9c0.5,0,0.8-0.4,0.8-0.8c0,0,0,0,0,0
			l0,0C356.8,598.5,356.4,598.1,355.9,598.1C355.9,598.1,355.9,598.1,355.9,598.1z"/>
		<path id="_Path_20" class="st0" d="M350.4,598.3c-0.6,0-1,0.4-1,1s0.4,1,1,1s1-0.4,1-1S350.9,598.3,350.4,598.3z"/>
		<path id="_Path_21" class="st0" d="M344.8,597.9c-0.7,0-1.2,0.5-1.2,1.2c0,0.7,0.5,1.2,1.2,1.2c0.7,0,1.2-0.5,1.2-1.2
			C346,598.4,345.5,597.9,344.8,597.9C344.8,597.9,344.8,597.9,344.8,597.9z"/>
		<path id="_Path_22" class="st0" d="M339.3,596.9c-0.8,0-1.4,0.6-1.4,1.4s0.6,1.4,1.4,1.4c0.8,0,1.4-0.6,1.4-1.4l0,0l0,0
			C340.6,597.5,340,596.9,339.3,596.9z"/>
		<path id="_Path_23" class="st0" d="M333.9,595.2c-0.8,0-1.5,0.7-1.5,1.5s0.7,1.5,1.5,1.5s1.5-0.7,1.5-1.5c0,0,0,0,0,0
			C335.4,595.9,334.8,595.2,333.9,595.2z"/>
		<path id="_Path_24" class="st0" d="M328.8,592.8c-0.9,0-1.7,0.8-1.7,1.7c0,0.9,0.8,1.7,1.7,1.7c0.9,0,1.7-0.8,1.7-1.7c0,0,0,0,0,0
			l0,0C330.5,593.6,329.7,592.8,328.8,592.8z"/>
		<path id="_Path_25" class="st0" d="M325.9,591.6c0-1-0.8-1.9-1.9-1.9s-1.9,0.8-1.9,1.9s0.8,1.9,1.9,1.9l0,0l0,0
			C325,593.5,325.9,592.7,325.9,591.6L325.9,591.6z"/>
		<path id="_Path_26" class="st0" d="M319.7,586.1c-1.1,0-2,0.9-2,2s0.9,2,2,2s2-0.9,2-2l0,0C321.7,587,320.8,586.1,319.7,586.1z"/>
		<path id="_Path_27" class="st0" d="M315.8,582c-1.2,0-2.2,1-2.2,2.2c0,1.2,1,2.2,2.2,2.2s2.2-1,2.2-2.2l0,0
			C318,583,317,582,315.8,582L315.8,582z"/>
		<path id="_Path_28" class="st0" d="M312.5,582c1.3,0,2.4-1.1,2.4-2.4s-1.1-2.4-2.4-2.4c-1.3,0-2.4,1.1-2.4,2.4
			S311.2,582,312.5,582L312.5,582z"/>
		<path id="_Path_29" class="st0" d="M312.3,574.8c0-1.4-1.1-2.6-2.5-2.6c-1.4,0-2.6,1.1-2.6,2.5c0,1.4,1.1,2.6,2.5,2.6c0,0,0,0,0,0
			C311.2,577.3,312.3,576.2,312.3,574.8C312.3,574.8,312.3,574.8,312.3,574.8z"/>
		<path id="_Path_30" class="st0" d="M396.9,553.6c-0.1,0-0.2,0.1-0.2,0.2c0,0.1,0,0.2,0.1,0.2s0.2,0,0.2-0.1c0,0,0-0.1,0-0.1l0,0
			C397,553.7,397,553.6,396.9,553.6C396.9,553.6,396.9,553.6,396.9,553.6z"/>
		<path id="_Path_31" class="st0" d="M395.2,558.8c-0.2,0-0.3,0.2-0.2,0.4c0,0.1,0.1,0.2,0.2,0.2c0.2,0,0.3-0.1,0.3-0.3l0,0
			C395.5,558.9,395.4,558.8,395.2,558.8L395.2,558.8z"/>
		<path id="_Path_32" class="st0" d="M393,563.7c-0.3,0-0.5,0.1-0.5,0.4c0,0.3,0.1,0.5,0.4,0.5c0,0,0.1,0,0.1,0
			c0.2,0,0.5-0.2,0.5-0.4c0,0,0,0,0,0C393.4,563.9,393.2,563.7,393,563.7L393,563.7z"/>
		<path id="_Path_33" class="st0" d="M390.3,568.4c-0.3,0-0.6,0.3-0.6,0.6c0,0,0,0,0,0c0,0.3,0.3,0.6,0.6,0.6c0.3,0,0.6-0.3,0.6-0.6
			C390.9,568.7,390.6,568.4,390.3,568.4C390.3,568.4,390.3,568.4,390.3,568.4z"/>
		<path id="_Path_34" class="st0" d="M387,572.8c-0.4,0-0.8,0.3-0.8,0.8c0,0.4,0.3,0.8,0.8,0.8c0.4,0,0.8-0.3,0.8-0.8
			S387.5,572.8,387,572.8C387,572.8,387,572.8,387,572.8z"/>
		<path id="_Path_35" class="st0" d="M383.4,576.9c-0.5,0-0.9,0.4-0.9,0.9c0,0.5,0.4,0.9,0.9,0.9c0.5,0,0.9-0.4,0.9-0.9l0,0
			C384.3,577.3,383.9,576.9,383.4,576.9L383.4,576.9z"/>
		<path id="_Path_36" class="st0" d="M379.2,580.5c-0.6,0-1.1,0.5-1,1.1s0.5,1.1,1.1,1c0.6,0,1-0.5,1-1.1l0,0
			C380.3,581,379.8,580.5,379.2,580.5L379.2,580.5z"/>
		<path id="_Path_37" class="st0" d="M374.8,583.6c-0.7,0-1.2,0.5-1.2,1.2c0,0.7,0.5,1.2,1.2,1.2c0.7,0,1.2-0.5,1.2-1.2c0,0,0,0,0,0
			l0,0C376,584.2,375.4,583.6,374.8,583.6z"/>
		<path id="_Path_38" class="st0" d="M369.9,586.2c-0.8,0-1.4,0.6-1.4,1.4s0.6,1.4,1.4,1.4c0.8,0,1.4-0.6,1.4-1.4l0,0l0,0
			C371.3,586.8,370.6,586.2,369.9,586.2z"/>
		<path id="_Path_39" class="st0" d="M364.7,588.1c-0.8,0-1.5,0.7-1.5,1.5c0,0.8,0.7,1.5,1.5,1.5c0.8,0,1.5-0.7,1.5-1.5c0,0,0,0,0,0
			l0,0C366.2,588.8,365.5,588.1,364.7,588.1z"/>
		<path id="_Path_40" class="st0" d="M359.3,589.3c-0.9,0-1.7,0.8-1.7,1.7c0,0.9,0.8,1.7,1.7,1.7c0.9,0,1.6-0.7,1.7-1.6l0,0
			C361,590.1,360.3,589.3,359.3,589.3C359.3,589.3,359.3,589.3,359.3,589.3z"/>
		<path id="_Path_41" class="st0" d="M353.8,589.8c-1,0-1.8,0.8-1.8,1.8c0,1,0.8,1.8,1.8,1.8s1.8-0.8,1.8-1.8
			C355.6,590.6,354.8,589.8,353.8,589.8L353.8,589.8z"/>
		<path id="_Path_42" class="st0" d="M350.2,591.5c0-1.1-0.9-2-2-2s-2,0.9-2,2s0.9,2,2,2S350.2,592.6,350.2,591.5z"/>
		<path id="_Path_43" class="st0" d="M344.8,590.7c0-1.2-1-2.1-2.1-2.1s-2.1,1-2.1,2.1c0,1.2,1,2.1,2.1,2.1
			C343.8,592.8,344.8,591.9,344.8,590.7C344.8,590.7,344.8,590.7,344.8,590.7z"/>
		<path id="_Path_44" class="st0" d="M339.6,589.1c0-1.3-1-2.3-2.3-2.3s-2.3,1-2.3,2.3c0,1.3,1,2.3,2.3,2.3
			C338.6,591.4,339.6,590.4,339.6,589.1L339.6,589.1z"/>
		<path id="_Path_45" class="st0" d="M334.6,586.9c0-1.3-1.1-2.4-2.4-2.4s-2.4,1.1-2.4,2.4c0,1.3,1.1,2.4,2.4,2.4l0,0l0,0
			C333.5,589.3,334.6,588.2,334.6,586.9z"/>
		<path id="_Path_46" class="st0" d="M384,512.8c0.1,0,0.2-0.1,0.2-0.1c0,0,0,0,0,0c0-0.1-0.1-0.2-0.1-0.2c0,0,0,0,0,0l0,0
			c-0.1,0-0.1,0.1-0.1,0.2l0,0C383.9,512.7,383.9,512.8,384,512.8z"/>
		<path id="_Path_47" class="st0" d="M386.6,517.9c0.2,0,0.3-0.1,0.4-0.2c0-0.2-0.1-0.3-0.2-0.4c0,0-0.1,0-0.1,0
			c-0.2,0-0.3,0.1-0.3,0.3l0,0C386.3,517.8,386.4,517.9,386.6,517.9C386.6,517.9,386.6,517.9,386.6,517.9L386.6,517.9z"/>
		<path id="_Path_48" class="st0" d="M388.7,523.2c0.2,0,0.5-0.2,0.5-0.5l0,0c0-0.3-0.2-0.5-0.5-0.5c-0.3,0-0.5,0.2-0.5,0.5
			C388.2,523,388.4,523.2,388.7,523.2z"/>
		<path id="_Path_49" class="st0" d="M390.2,528.7c0.3,0,0.6-0.3,0.6-0.6c0,0,0,0,0,0c0-0.3-0.3-0.6-0.6-0.6c-0.3,0-0.6,0.3-0.6,0.6
			l0,0C389.6,528.5,389.8,528.7,390.2,528.7L390.2,528.7z"/>
		<path id="_Path_50" class="st0" d="M390.3,533.6c0,0.4,0.3,0.8,0.8,0.8s0.8-0.3,0.8-0.8c0-0.4-0.3-0.8-0.8-0.8
			S390.3,533.2,390.3,533.6L390.3,533.6z"/>
		<path id="_Path_51" class="st0" d="M391.5,538.3c-0.5,0-0.9,0.4-0.9,0.9c0,0.5,0.4,0.9,0.9,0.9s0.9-0.4,0.9-0.9
			C392.4,538.7,392,538.3,391.5,538.3z"/>
		<path id="_Path_52" class="st0" d="M391.2,543.7c-0.6,0-1.1,0.5-1.1,1.1c0,0.6,0.5,1.1,1.1,1.1s1.1-0.5,1.1-1.1l0,0
			C392.3,544.2,391.8,543.7,391.2,543.7C391.2,543.7,391.2,543.7,391.2,543.7L391.2,543.7z"/>
		<path id="_Path_53" class="st0" d="M390.4,549.1c-0.7,0-1.2,0.5-1.2,1.2l0,0c-0.1,0.7,0.4,1.3,1.1,1.3s1.3-0.4,1.3-1.1
			c0-0.1,0-0.1,0-0.2C391.6,549.6,391,549.1,390.4,549.1L390.4,549.1L390.4,549.1z"/>
		<path id="_Path_54" class="st0" d="M390.2,555.6c0-0.8-0.6-1.4-1.4-1.4s-1.4,0.6-1.4,1.4c0,0.8,0.6,1.4,1.4,1.4l0,0l0,0
			C389.6,557,390.2,556.4,390.2,555.6L390.2,555.6z"/>
		<path id="_Path_55" class="st0" d="M386.6,559.2c-0.8,0-1.5,0.7-1.5,1.5c0,0.8,0.7,1.5,1.5,1.5s1.5-0.7,1.5-1.5l0,0
			C388.1,559.9,387.5,559.3,386.6,559.2C386.6,559.2,386.6,559.2,386.6,559.2L386.6,559.2z"/>
		<path id="_Path_56" class="st0" d="M383.8,563.9c-0.9,0-1.7,0.7-1.7,1.7c0,0.9,0.7,1.7,1.7,1.7c0.9,0,1.7-0.7,1.7-1.7l0,0l0,0
			C385.4,564.6,384.7,563.9,383.8,563.9z"/>
		<path id="_Path_57" class="st0" d="M380.3,568.1c-1,0-1.8,0.8-1.8,1.8c0,1,0.8,1.8,1.8,1.8c1,0,1.8-0.8,1.8-1.8c0,0,0,0,0,0l0,0
			C382.1,568.9,381.3,568.1,380.3,568.1L380.3,568.1L380.3,568.1z"/>
		<path id="_Path_58" class="st0" d="M376.3,571.8c-1.1,0-2,0.9-2,2s0.9,2,2,2s2-0.9,2-2S377.4,571.8,376.3,571.8z"/>
		<path id="_Path_59" class="st0" d="M371.8,575c-1.2,0-2.1,1-2.1,2.1s1,2.1,2.1,2.1s2.1-1,2.1-2.1C373.9,576,373,575,371.8,575
			C371.8,575,371.8,575,371.8,575z"/>
		<path id="_Path_60" class="st0" d="M366.9,577.5c-1.3,0-2.3,1-2.3,2.3c0,1.3,1,2.3,2.3,2.3c1.3,0,2.3-1,2.3-2.3l0,0
			C369.2,578.5,368.2,577.5,366.9,577.5L366.9,577.5z"/>
		<path id="_Path_61" class="st0" d="M361.7,579.4c-1.3,0-2.4,1.1-2.4,2.4c0,1.3,1.1,2.4,2.4,2.4c1.3,0,2.4-1.1,2.4-2.4l0,0
			C364.1,580.5,363.1,579.4,361.7,579.4z"/>
		<path id="_Path_62" class="st0" d="M345.9,492.8c0.1,0,0.2-0.1,0.1-0.2c0-0.1-0.1-0.1-0.1-0.1c-0.1,0-0.1,0.1-0.1,0.1
			C345.7,492.8,345.8,492.8,345.9,492.8z"/>
		<path id="_Path_63" class="st0" d="M351.2,494.7c0.2,0,0.3-0.1,0.3-0.3c0-0.2-0.2-0.3-0.4-0.2c-0.1,0-0.2,0.1-0.2,0.2
			C350.9,494.5,351,494.7,351.2,494.7L351.2,494.7z"/>
		<path id="_Path_64" class="st0" d="M356.3,497c0.3,0,0.5-0.2,0.5-0.5c0-0.3-0.1-0.5-0.4-0.5c-0.3,0-0.5,0.1-0.5,0.4
			c0,0,0,0.1,0,0.1C355.9,496.8,356.1,497,356.3,497z"/>
		<path id="_Path_65" class="st0" d="M361.2,499.9c0.3,0,0.6-0.3,0.6-0.6c0-0.3-0.3-0.6-0.6-0.6c-0.3,0-0.6,0.3-0.6,0.6
			C360.6,499.6,360.8,499.9,361.2,499.9C361.2,499.9,361.2,499.9,361.2,499.9L361.2,499.9z"/>
		<path id="_Path_66" class="st0" d="M365.7,503.3c0.4,0,0.8-0.3,0.8-0.8c0,0,0,0,0,0c0-0.4-0.3-0.8-0.8-0.8c-0.4,0-0.8,0.3-0.8,0.8
			C365,502.9,365.3,503.3,365.7,503.3L365.7,503.3z"/>
		<path id="_Path_67" class="st0" d="M369.9,507.1c0.5,0,0.9-0.4,0.9-0.9s-0.4-0.9-0.9-0.9c-0.5,0-0.9,0.4-0.9,0.9c0,0,0,0,0,0l0,0
			C369,506.7,369.4,507.1,369.9,507.1C369.9,507.1,369.9,507.1,369.9,507.1z"/>
		<path id="_Path_68" class="st0" d="M373.7,511.4c0.6,0,1.1-0.5,1.1-1c0,0,0,0,0,0c0.1-0.6-0.4-1.1-1-1.2c-0.6-0.1-1.1,0.4-1.2,1
			c0,0.1,0,0.1,0,0.2l0,0C372.6,510.9,373.1,511.4,373.7,511.4C373.7,511.4,373.7,511.4,373.7,511.4z"/>
		<path id="_Path_69" class="st0" d="M377,516c0.7,0,1.2-0.5,1.2-1.2c0-0.7-0.5-1.2-1.2-1.2s-1.2,0.5-1.2,1.2l0,0
			C375.8,515.5,376.3,516,377,516z"/>
		<path id="_Path_70" class="st0" d="M379.7,521c0.8,0,1.4-0.6,1.4-1.4s-0.6-1.4-1.4-1.4c-0.8,0-1.4,0.6-1.4,1.4l0,0
			C378.3,520.4,378.9,521,379.7,521C379.7,521,379.7,521,379.7,521z"/>
		<path id="_Path_71" class="st0" d="M380.2,524.9c0,0.8,0.7,1.5,1.5,1.5c0.8,0,1.5-0.7,1.5-1.5c0-0.8-0.7-1.5-1.5-1.5c0,0,0,0,0,0
			l0,0C380.9,523.3,380.2,524,380.2,524.9C380.2,524.9,380.2,524.9,380.2,524.9z"/>
		<path id="_Path_72" class="st0" d="M381.4,530.3c0,0.9,0.8,1.7,1.7,1.7s1.7-0.8,1.7-1.7c0-0.9-0.8-1.7-1.7-1.7
			C382.2,528.6,381.4,529.3,381.4,530.3C381.4,530.3,381.4,530.3,381.4,530.3z"/>
		<path id="_Path_73" class="st0" d="M381.9,535.8c0,1,0.8,1.8,1.8,1.8c1,0,1.8-0.8,1.8-1.8c0-1-0.8-1.8-1.8-1.8c0,0,0,0,0,0l0,0
			C382.7,534,381.9,534.8,381.9,535.8L381.9,535.8z"/>
		<path id="_Path_74" class="st0" d="M385.6,541.4c0-1.1-0.9-2-2-2s-2,0.9-2,2s0.9,2,2,2l0,0C384.7,543.4,385.6,542.5,385.6,541.4z"
			/>
		<path id="_Path_75" class="st0" d="M384.9,546.9c0-1.2-1-2.1-2.1-2.1s-2.1,1-2.1,2.1c0,1.2,1,2.1,2.1,2.1l0,0
			C383.9,549,384.9,548.1,384.9,546.9L384.9,546.9z"/>
		<path id="_Path_76" class="st0" d="M383.5,552.3c0-1.3-1-2.3-2.3-2.3s-2.3,1-2.3,2.3c0,1.3,1,2.3,2.3,2.3l0,0
			C382.5,554.5,383.5,553.5,383.5,552.3L383.5,552.3z"/>
		<path id="_Path_77" class="st0" d="M379,554.9c-1.3,0-2.4,1.1-2.4,2.4c0,1.3,1.1,2.4,2.4,2.4c1.3,0,2.4-1.1,2.4-2.4l0,0
			C381.4,556,380.3,554.9,379,554.9z"/>
		<path id="_Path_78" class="st0" d="M304.8,505.7c0.1,0,0.2-0.1,0.1-0.2c0-0.1-0.1-0.1-0.2-0.1c-0.1,0-0.1,0.1-0.1,0.1l0,0
			C304.6,505.6,304.7,505.7,304.8,505.7C304.8,505.7,304.8,505.7,304.8,505.7z"/>
		<path id="_Path_79" class="st0" d="M309.7,503.3c0.2,0,0.3-0.1,0.3-0.3c0,0,0,0,0,0c0-0.2-0.1-0.3-0.3-0.3c0,0,0,0,0,0
			c-0.2,0-0.3,0.1-0.3,0.3C309.4,503.1,309.5,503.3,309.7,503.3C309.7,503.3,309.7,503.3,309.7,503.3z"/>
		<path id="_Path_80" class="st0" d="M314.9,501.4c0.3,0,0.5-0.2,0.5-0.5c0-0.3-0.2-0.5-0.5-0.5s-0.5,0.2-0.5,0.5l0,0
			C314.4,501.2,314.6,501.4,314.9,501.4L314.9,501.4z"/>
		<path id="_Path_81" class="st0" d="M320.2,500c0.3,0,0.6-0.3,0.6-0.6s-0.3-0.6-0.6-0.6s-0.6,0.3-0.6,0.6S319.9,500,320.2,500
			L320.2,500z"/>
		<path id="_Path_82" class="st0" d="M325.8,499.2c0.4,0,0.8-0.3,0.8-0.8c0-0.4-0.3-0.8-0.8-0.8c-0.4,0-0.8,0.3-0.8,0.8
			S325.3,499.2,325.8,499.2C325.8,499.2,325.8,499.2,325.8,499.2z"/>
		<path id="_Path_83" class="st0" d="M331.3,499c0.5,0.1,1-0.3,1-0.8c0.1-0.5-0.3-1-0.8-1c-0.1,0-0.1,0-0.2,0
			c-0.5,0.1-0.9,0.5-0.8,1C330.5,498.6,330.9,499,331.3,499z"/>
		<path id="_Path_84" class="st0" d="M336.9,499.4c0.6-0.1,1-0.6,1-1.2c0-0.5-0.5-0.9-1-1c-0.6,0-1.1,0.5-1.1,1c0,0,0,0,0,0l0,0
			C335.8,498.9,336.3,499.4,336.9,499.4L336.9,499.4z"/>
		<path id="_Path_85" class="st0" d="M342.4,500.4c0.7,0,1.2-0.5,1.2-1.2c0-0.7-0.5-1.2-1.2-1.2s-1.2,0.5-1.2,1.2c0,0,0,0,0,0l0,0
			C341.2,499.9,341.7,500.4,342.4,500.4C342.4,500.4,342.4,500.4,342.4,500.4L342.4,500.4z"/>
		<path id="_Path_86" class="st0" d="M347.8,502.1c0.8,0,1.4-0.6,1.4-1.4c0-0.8-0.6-1.4-1.4-1.4c-0.8,0-1.4,0.6-1.4,1.4c0,0,0,0,0,0
			C346.4,501.5,347,502.1,347.8,502.1C347.8,502.1,347.8,502.1,347.8,502.1z"/>
		<path id="_Path_87" class="st0" d="M352.9,504.5c0.8,0,1.5-0.6,1.5-1.5c0.1-0.8-0.4-1.6-1.3-1.7c-0.8-0.1-1.6,0.4-1.7,1.3
			c0,0.2,0,0.3,0,0.5l0,0C351.4,503.8,352.1,504.5,352.9,504.5L352.9,504.5z"/>
		<path id="_Path_88" class="st0" d="M356,505.8c0,0.9,0.7,1.7,1.7,1.7c0.9,0,1.7-0.7,1.7-1.7c0-0.9-0.7-1.7-1.7-1.7c0,0,0,0,0,0
			l0,0C356.8,504.1,356,504.9,356,505.8C356,505.8,356,505.8,356,505.8z"/>
		<path id="_Path_89" class="st0" d="M362,511.1c1,0,1.8-0.8,1.8-1.8c0-1-0.8-1.8-1.8-1.8c-1,0-1.8,0.8-1.8,1.8
			C360.2,510.3,361,511.1,362,511.1C362,511.1,362,511.1,362,511.1z"/>
		<path id="_Path_90" class="st0" d="M365.9,515.3c1.1,0,2-0.9,2-2s-0.9-2-2-2s-2,0.9-2,2l0,0C363.9,514.4,364.8,515.3,365.9,515.3z
			"/>
		<path id="_Path_91" class="st0" d="M369.2,515.7c-1.2,0-2.1,1-2.1,2.1c0,1.2,1,2.1,2.1,2.1s2.1-1,2.1-2.1c0,0,0,0,0,0
			C371.3,516.6,370.4,515.7,369.2,515.7C369.2,515.7,369.2,515.7,369.2,515.7z"/>
		<path id="_Path_92" class="st0" d="M369.6,522.7c0,1.3,1,2.3,2.3,2.3s2.3-1,2.3-2.3c0-1.3-1-2.3-2.3-2.3
			C370.6,520.4,369.6,521.4,369.6,522.7L369.6,522.7z"/>
		<path id="_Path_93" class="st0" d="M371.5,527.8c0,1.3,1.1,2.4,2.4,2.4s2.4-1.1,2.4-2.4c0-1.3-1.1-2.4-2.4-2.4l0,0
			C372.6,525.4,371.5,526.5,371.5,527.8z"/>
		<path id="_Path_94" class="st0" d="M375.3,530.7c-1.4,0-2.6,1.1-2.6,2.6c0,1.4,1.1,2.6,2.6,2.6c1.4,0,2.6-1.1,2.6-2.6c0,0,0,0,0,0
			C377.9,531.8,376.7,530.7,375.3,530.7C375.3,530.7,375.3,530.7,375.3,530.7z"/>
		<path id="_Path_95" class="st0" d="M284.8,543.4c-0.2,0-0.3,0.1-0.3,0.3c0,0.2,0.2,0.3,0.3,0.2c0.1,0,0.2-0.1,0.2-0.2
			C285.1,543.5,285,543.4,284.8,543.4z"/>
		<path id="_Path_96" class="st0" d="M286.5,537.8c-0.3,0-0.6,0.3-0.6,0.6c0,0.3,0.2,0.6,0.6,0.6c0,0,0,0,0,0c0.3,0,0.6-0.3,0.6-0.6
			l0,0C287,538.1,286.8,537.8,286.5,537.8z"/>
		<path id="_Path_97" class="st0" d="M289.5,533.3c0-0.5-0.4-0.9-0.9-0.9c-0.5,0-0.9,0.4-0.9,0.9c0,0.5,0.4,0.9,0.9,0.9h0l0,0
			C289.1,534.1,289.5,533.7,289.5,533.3z"/>
		<path id="_Path_98" class="st0" d="M291.4,529.5c0.6,0,1.2-0.5,1.2-1.1c0-0.6-0.5-1.2-1.1-1.2c-0.6,0-1.2,0.5-1.2,1.1c0,0,0,0,0,0
			l0,0C290.3,529,290.8,529.5,291.4,529.5C291.4,529.5,291.4,529.5,291.4,529.5z"/>
		<path id="_Path_99" class="st0" d="M294.6,525.3c0.8,0,1.4-0.6,1.4-1.4c0-0.8-0.6-1.4-1.4-1.4c0,0,0,0,0,0c-0.8,0-1.4,0.6-1.4,1.4
			l0,0C293.2,524.6,293.8,525.3,294.6,525.3z"/>
		<path id="_Path_100" class="st0" d="M298.3,521.4c0.9,0,1.7-0.8,1.7-1.7c0-0.9-0.8-1.7-1.7-1.7s-1.7,0.8-1.7,1.7l0,0
			C296.6,520.6,297.4,521.4,298.3,521.4z"/>
		<path id="_Path_101" class="st0" d="M302.4,517.9c1.1,0,2-0.9,2-2s-0.9-2-2-2s-2,0.9-2,2l0,0C300.4,517,301.3,517.9,302.4,517.9z"
			/>
		<path id="_Path_102" class="st0" d="M306.9,514.9c1.3,0,2.3-1,2.3-2.3c0-1.3-1-2.3-2.3-2.3c-1.3,0-2.3,1-2.3,2.3l0,0l0,0
			C304.6,513.9,305.6,514.9,306.9,514.9z"/>
		<path id="_Path_103" class="st0" d="M311.8,512.4c1.4,0,2.6-1.1,2.6-2.6c0-1.4-1.1-2.6-2.6-2.6c-1.4,0-2.6,1.1-2.6,2.6
			c0,0,0,0,0,0C309.2,511.3,310.3,512.4,311.8,512.4C311.8,512.4,311.8,512.4,311.8,512.4z"/>
		<path id="_Path_104" class="st0" d="M316.9,510.6c1.4,0,2.6-1,2.8-2.4c1,1.4,2.9,1.8,4.4,0.8c0,0,0,0,0,0c0.4-0.3,0.8-0.7,1-1.1
			c1.1,1.5,3.3,1.8,4.8,0.7c0,0,0,0,0,0c0.2-0.1,0.3-0.3,0.5-0.4c1.2,1.7,3.5,2.1,5.2,0.9c0.1,0.2,0.3,0.4,0.5,0.6
			c-0.9,0.1-1.8,0.5-2.5,1.1c-1.6-1.4-4.1-1.3-5.6,0.3c-0.1,0.1-0.2,0.2-0.3,0.3c-1.6-1.3-4-1-5.3,0.6c-0.2,0.2-0.3,0.5-0.4,0.7
			c-1.6-1.1-3.8-0.7-4.9,0.9c-0.2,0.4-0.4,0.8-0.5,1.2c-1.6-1-3.6-0.5-4.6,1.1c-0.3,0.5-0.5,1.1-0.5,1.7l0,0
			c-1.5-0.9-3.4-0.3-4.2,1.1c-0.3,0.5-0.4,1-0.4,1.5c0,0.3,0.1,0.6,0.1,0.9c-0.4-0.3-1-0.4-1.5-0.4c-1.6,0-2.9,1.3-2.9,2.9
			c0,1.6,1.3,2.9,2.9,2.9s2.9-1.3,2.9-2.9c0,0,0,0,0,0c0-0.2,0-0.5-0.1-0.7c1.4,0.9,3.4,0.5,4.3-0.9c0.3-0.5,0.5-1,0.5-1.6
			c0.5,0.3,1.1,0.5,1.8,0.5h0.2c-0.7,0.7-1.2,1.6-1.2,2.5c-2-0.4-3.9,0.9-4.3,2.9c0,0.2-0.1,0.4-0.1,0.7c0,0.1,0,0.3,0,0.4
			c-0.1,0-0.3,0-0.4,0c-1.9,0-3.5,1.5-3.5,3.4c0,0,0,0,0,0l0,0c0,0.4,0.1,0.7,0.2,1.1h-0.2c-1.8,0-3.3,1.4-3.3,3.2
			c0,0.6,0.2,1.3,0.5,1.8h-0.1c-1.7,0-3.1,1.4-3.1,3c0,0.9,0.4,1.7,1,2.3h-0.1c-1.6,0-2.9,1.3-2.9,2.9c0,1.6,1.3,2.9,2.9,2.9
			c1.6,0,2.9-1.3,2.9-2.9c0-0.8-0.3-1.5-0.9-2.1h0.2c0.9,0,1.7-0.4,2.2-1v0.1c0,0.8,0.2,1.5,0.7,2.1c-1.8,0.6-2.7,2.6-2.1,4.3
			c0,0,0,0,0,0c0.2,0.6,0.5,1.1,1,1.4c-1.6,0.7-2.3,2.6-1.6,4.3c0.3,0.7,0.8,1.2,1.4,1.5c-1.5,0.7-2.2,2.5-1.5,4
			c0.4,0.9,1.2,1.5,2.2,1.7c-1.4,0.7-2,2.5-1.3,3.9c0.5,1,1.5,1.6,2.6,1.6c0.2,0,0.4,0,0.5-0.1c-1.1,0.4-1.7,1.6-1.3,2.7
			s1.6,1.7,2.7,1.3c1.1-0.4,1.7-1.6,1.3-2.7c-0.4-1-1.4-1.6-2.4-1.4c1.2-0.4,2-1.5,2-2.7c0-0.1,0-0.1,0-0.2c0.5,0.5,1.1,0.8,1.7,1
			c-1.1,1.3-1,3.3,0.4,4.5c0.6,0.5,1.3,0.8,2.1,0.8h0.1c-1,1.3-0.8,3.2,0.6,4.2c0.5,0.4,1.2,0.6,1.9,0.6c0.3,0,0.6,0,0.9-0.1
			c-0.9,1.3-0.5,3.1,0.8,4c0,0,0,0,0,0c0.5,0.3,1,0.5,1.6,0.5c0.7,0,1.3-0.2,1.8-0.6c-1,1.1-0.9,2.9,0.2,3.9c1.1,1,2.9,0.9,3.9-0.2
			c0.9-1.1,0.9-2.7-0.1-3.7c0.4,0,0.7-0.1,1.1-0.2l0,0c0,1.3,0.7,2.4,1.8,3c-0.2,0-0.3,0-0.5,0c-1.4,0-2.6,1.1-2.6,2.6
			c0,1.4,1.1,2.6,2.6,2.6s2.6-1.1,2.6-2.6c0-1-0.5-1.9-1.4-2.3c0.3,0.1,0.5,0.1,0.8,0.1c0.6,0,1.2-0.2,1.8-0.5
			c0.1,1.8,1.7,3.1,3.4,2.9c0.8-0.1,1.5-0.4,2-1c0.2,1.6,1.7,2.8,3.3,2.7c1-0.1,1.9-0.7,2.4-1.7c0.3,1.6,1.8,2.6,3.4,2.3
			c1.2-0.2,2.2-1.3,2.3-2.5c0.1,1.5,1.4,2.6,2.9,2.5c1.5-0.1,2.6-1.4,2.5-2.9c-0.1-1.4-1.3-2.5-2.7-2.5c0.3-0.3,0.5-0.6,0.6-0.9
			c0.9,0.9,2.2,1.2,3.4,0.8c-1.2,0.8-1.5,2.4-0.7,3.6c0.8,1.2,2.4,1.5,3.6,0.7s1.5-2.4,0.7-3.6c-0.5-0.7-1.3-1.1-2.1-1.1
			c-0.3,0-0.5,0-0.7,0.1c0.8-0.5,1.3-1.2,1.5-2.1c1.3,1.1,3.4,1,4.5-0.4c0.5-0.6,0.8-1.3,0.8-2.1c0,0,0,0,0-0.1
			c0.5,0.4,1.1,0.6,1.8,0.6c1.7,0,3-1.3,3-3l0,0c0-0.3,0-0.6-0.1-0.9c1.3,0.9,3.1,0.5,4-0.8c0.7-1,0.6-2.4-0.2-3.4
			c1.1,1,2.9,0.9,3.9-0.3c0.4-0.5,0.7-1.1,0.7-1.7c0-1.5-1.2-2.7-2.7-2.8l0,0c-0.7,0-1.4,0.3-1.9,0.8c0-0.3-0.1-0.7-0.2-1l0,0
			c1.3,0,2.4-0.7,3-1.8c0,0.2,0,0.3,0,0.5c0,1.4,1.1,2.6,2.6,2.6s2.6-1.1,2.6-2.6c0-1.4-1.1-2.6-2.6-2.6c-1,0-1.9,0.5-2.3,1.4
			c0.1-0.3,0.1-0.5,0.1-0.8c0-0.6-0.2-1.2-0.5-1.8c1.7-0.1,3.1-1.6,2.9-3.4c-0.1-0.8-0.4-1.5-1-2.1c1.6-0.2,2.8-1.7,2.7-3.3
			c-0.1-1-0.7-1.9-1.7-2.4c1.6-0.3,2.6-1.8,2.3-3.4c-0.2-1.2-1.3-2.2-2.5-2.3c1.5-0.1,2.6-1.5,2.5-3c-0.1-1.5-1.5-2.6-3-2.5
			s-2.6,1.5-2.5,3c0.1,1.3,1.2,2.3,2.5,2.5c-1.6,0.1-2.8,1.5-2.7,3c0.1,1,0.6,1.9,1.5,2.4c-1.6,0.3-2.7,1.8-2.5,3.4c0,0,0,0,0,0.1
			c0.1,0.6,0.4,1.2,0.8,1.6c-1.6,0.2-2.8,1.6-2.7,3.3c0.1,0.4,0.2,0.8,0.4,1.2c-1.8,0.1-3.2,1.6-3.2,3.3c0,0.3,0,0.7,0.1,1h-0.1
			c-1.9,0-3.5,1.6-3.5,3.5c0,0.1,0,0.2,0,0.2c-0.2,0-0.4,0-0.5,0c-1.8,0-3.4,1.3-3.6,3.1c-0.3-0.1-0.7-0.1-1-0.1
			c-1.5,0-2.8,0.9-3.4,2.2c-1.4-1.2-3.5-1-4.7,0.5c0,0,0,0,0,0c-0.2,0.2-0.3,0.5-0.5,0.8c-1.2-1.4-3.4-1.5-4.7-0.2
			c-0.3,0.3-0.5,0.6-0.7,0.9c-1.2-1.4-3.3-1.7-4.7-0.5c0,0,0,0,0,0l-0.3,0.3c-0.8-1.7-2.7-2.4-4.4-1.7c0,0,0,0,0,0
			c-0.2,0.1-0.4,0.2-0.5,0.3c-0.4-1.8-2.2-2.9-4-2.5c-0.2,0.1-0.4,0.1-0.6,0.2c0-1.8-1.6-3.3-3.4-3.2c0,0,0,0,0,0
			c-0.1,0-0.3,0-0.4,0c0.4-1.8-0.7-3.6-2.5-4c-0.2,0-0.5-0.1-0.7-0.1c0.7-1.7,0-3.6-1.7-4.4c0,0,0,0,0,0c-0.1-0.1-0.3-0.1-0.4-0.2
			c1.1-1.5,0.9-3.6-0.6-4.7c-0.1-0.1-0.2-0.2-0.4-0.2c1.5-1.1,1.7-3.2,0.6-4.7c-0.1-0.2-0.3-0.3-0.5-0.5c0.3-3.3,1.6-6.4,3.8-8.9
			c0-0.1-0.1-0.3-0.1-0.4c1.8,0.1,3.4-1.3,3.5-3.2c0-0.2,0-0.4,0-0.7c1.8,0.4,3.6-0.7,4-2.5c0-0.2,0.1-0.3,0.1-0.5
			c1.6,0.9,3.7,0.2,4.5-1.4c0.1-0.1,0.1-0.3,0.2-0.4c0.7,0.6,1.6,0.9,2.6,0.8l0,0c1-0.1,2-0.7,2.5-1.5c1.1,1.5,3.1,1.9,4.6,0.8
			c0.2-0.1,0.3-0.2,0.4-0.4c0.7,1.7,2.6,2.5,4.3,1.9c0,0,0,0,0,0c0.2-0.1,0.4-0.2,0.6-0.3c0.2,1,0.8,1.8,1.7,2.3l0,0
			c0.7,0.4,1.6,0.5,2.4,0.3l0.3,0.3c0,0.7,0.3,1.4,0.8,2l0.1,0.1c1.7,1.8,5.7,6.1,4.9,11.9c-0.2,1.4,0.6,2.2,1.7,1.1
			c4-4.4,5.9-10.2,5.2-16.1c0-0.6-0.2-1.2-0.4-1.8c0.1-0.4,0.1-0.7,0.1-1.1c0-1.7-0.8-3.3-2.1-4.3c0.1-0.3,0.1-0.7,0.1-1
			c0-2.1-1.3-4-3.2-4.8c0-2.4-1.8-4.4-4.2-4.8c-0.4-2.2-2.4-3.8-4.6-3.9h-0.2c-0.6-1.8-2.3-3.1-4.2-3.1c-0.4,0-0.8,0-1.1,0.1
			c-1-2.1-3.5-3-5.6-2.1l-0.1,0c-1.1-1.9-3.6-2.5-5.5-1.4c-0.2,0.1-0.3,0.2-0.5,0.3c-1.2-1.7-3.5-2-5.2-0.8
			c-0.3,0.2-0.5,0.4-0.7,0.7c-1.2-1.5-3.4-1.7-4.8-0.5c0,0,0,0,0,0c-0.4,0.3-0.8,0.8-1,1.2c-1.1-1.3-3.1-1.5-4.4-0.3
			c-0.6,0.5-1,1.2-1.1,2c-1-1.3-2.7-1.5-4-0.5c-1.3,1-1.5,2.7-0.5,4C315.2,510.2,316,510.6,316.9,510.6L316.9,510.6z"/>
		<path id="_Path_105" class="st0" d="M297.7,584.6c-0.1,0-0.2,0.1-0.2,0.2l0,0c0,0.1,0.1,0.2,0.2,0.2c0.1,0,0.2-0.1,0.2-0.2
			c0,0,0,0,0,0C297.9,584.7,297.8,584.6,297.7,584.6z"/>
		<path id="_Path_106" class="st0" d="M295.1,579.4c-0.2,0-0.4,0.2-0.5,0.4l0,0c0,0.2,0.3,0.4,0.5,0.4c0.2,0,0.3-0.2,0.4-0.4l0,0
			C295.5,579.6,295.3,579.4,295.1,579.4L295.1,579.4z"/>
		<path id="_Path_107" class="st0" d="M293,574c-0.4,0-0.7,0.3-0.7,0.7s0.3,0.7,0.7,0.7c0.4,0,0.7-0.3,0.7-0.7c0,0,0,0,0,0
			C293.7,574.3,293.4,574,293,574z"/>
		<path id="_Path_108" class="st0" d="M291.5,568.4c-0.5,0-0.9,0.4-0.9,0.9s0.4,0.9,0.9,0.9c0.5,0,0.9-0.4,0.9-0.9
			C292.4,568.8,292,568.4,291.5,568.4C291.5,568.4,291.5,568.4,291.5,568.4z"/>
		<path id="_Path_109" class="st0" d="M291.7,563.8c0-0.6-0.5-1.1-1.1-1.1c-0.6,0-1.1,0.5-1.1,1.1s0.5,1.1,1.1,1.1h0l0,0
			C291.2,564.9,291.7,564.4,291.7,563.8z"/>
		<path id="_Path_110" class="st0" d="M291.6,558.2c0-0.7-0.6-1.3-1.3-1.3c-0.7,0-1.3,0.6-1.3,1.3c0,0.7,0.6,1.3,1.3,1.3
			C291,559.6,291.6,559,291.6,558.2C291.6,558.3,291.6,558.3,291.6,558.2z"/>
		<path id="_Path_111" class="st0" d="M288.9,552.7c0,0.9,0.7,1.5,1.6,1.5c0.9,0,1.5-0.7,1.5-1.6c0-0.9-0.7-1.5-1.5-1.5
			C289.6,551.1,288.9,551.8,288.9,552.7C288.9,552.7,288.9,552.7,288.9,552.7z"/>
		<path id="_Path_112" class="st0" d="M291.3,549c1,0,1.8-0.8,1.8-1.8c0-1-0.8-1.8-1.8-1.8s-1.8,0.8-1.8,1.8
			C289.5,548.2,290.3,549,291.3,549L291.3,549z"/>
		<path id="_Path_113" class="st0" d="M292.8,539.8c-1.1,0-2,0.9-2,2s0.9,2,2,2s2-0.9,2-2l0,0C294.8,540.7,293.9,539.8,292.8,539.8z
			"/>
		<path id="_Path_114" class="st0" d="M295.1,538.9c1.2,0,2.2-1,2.2-2.2c0-1.2-1-2.2-2.2-2.2s-2.2,1-2.2,2.2l0,0l0,0
			C292.8,537.9,293.8,538.9,295.1,538.9C295,538.9,295.1,538.9,295.1,538.9z"/>
		<path id="_Path_115" class="st0" d="M297.9,534.3c1.3,0,2.4-1.1,2.4-2.4s-1.1-2.4-2.4-2.4s-2.4,1.1-2.4,2.4
			S296.6,534.3,297.9,534.3z"/>
		<path id="_Path_116" class="st0" d="M304.1,527.6c0-1.5-1.2-2.7-2.7-2.7s-2.7,1.2-2.7,2.7c0,1.5,1.2,2.7,2.7,2.7h0
			C302.9,530.2,304.1,529,304.1,527.6z"/>
	</g>
	<g id="_Group_">
		<!-- <path id="_Path_117" class="st0" d="M254.4,642.5c-1.5,0-3-0.3-4.4-0.9c-5.8-2.5-8.5-9.2-6-15c1.1-2.7,3.3-4.9,6-6.1
			c2.8-1.2,6.1-1.2,8.9,0c1.4,0.6,2.6,1.5,3.7,2.5c0.2,0.2,0.4,0.5,0.5,0.8c0.1,0.4,0.1,0.8-0.1,1.1c-0.2,0.4-0.7,0.6-1.1,0.6l0,0
			c-0.4,0-0.9-0.1-1.2-0.5c-0.9-0.7-1.8-1.3-2.8-1.9c-1-0.5-2.2-0.8-3.4-0.8c-1.1,0-2.3,0.2-3.3,0.7c-1,0.4-1.9,1.1-2.7,1.8
			c-0.8,0.8-1.4,1.7-1.8,2.7c-1.8,4.3,0.2,9.3,4.5,11.1c3.3,1.4,7.1,0.6,9.5-2c0.2-0.3,0.6-0.5,0.9-0.5c0.1,0,0.2,0,0.3,0
			c0.3,0,0.5,0.1,0.8,0.2c0.4,0.3,0.6,0.7,0.5,1.2c0,0.4-0.1,0.8-0.4,1.1c-1,1.1-2.3,2.1-3.7,2.7
			C257.5,642.2,255.9,642.6,254.4,642.5z"/>
		<path id="_Compound_Path_" class="st0" d="M278.1,642.5c-1.5,0-3-0.3-4.4-0.9c-2.7-1.2-4.8-3.3-6-6c-1.2-2.8-1.2-6,0-8.9
			c0.6-1.3,1.4-2.6,2.4-3.6c4.4-4.5,11.6-4.5,16.1,0c1,1,1.9,2.3,2.5,3.6c1.2,2.8,1.2,6,0,8.9c-0.6,1.4-1.4,2.6-2.5,3.6
			c-1,1-2.3,1.9-3.6,2.4C281.2,642.2,279.7,642.5,278.1,642.5z M278.1,622.7c-2.2,0-4.4,0.9-6,2.5c-0.8,0.8-1.4,1.7-1.8,2.7
			c-0.9,2.1-0.9,4.5,0,6.6c1.8,4.3,6.8,6.3,11.1,4.5c1-0.4,1.9-1,2.7-1.8c3.3-3.3,3.3-8.7,0-12c-0.8-0.8-1.7-1.4-2.7-1.8
			C280.4,622.9,279.3,622.7,278.1,622.7L278.1,622.7z"/>
		<path id="_Path_118" class="st0" d="M309.7,642.6c-0.8,0-1.5-0.7-1.5-1.5l0,0l0,0v-13c0-0.7-0.1-1.5-0.4-2.1c-0.6-1.4-1.6-2.4-3-3
			c-1.4-0.6-2.9-0.6-4.2,0c-0.6,0.3-1.2,0.7-1.7,1.2c-0.5,0.5-0.9,1.1-1.2,1.8c-0.3,0.7-0.4,1.4-0.4,2.1v13
			c-0.1,0.8-0.8,1.4-1.6,1.3c-0.7-0.1-1.3-0.6-1.3-1.3v-13c0-1.1,0.2-2.2,0.6-3.3c0.4-1,1-1.9,1.8-2.7c0.8-0.8,1.7-1.4,2.7-1.8
			c2.1-0.9,4.5-0.9,6.5,0c2,0.9,3.6,2.5,4.5,4.5c0.4,1,0.7,2.1,0.7,3.3v13c0,0.4-0.2,0.7-0.4,1C310.4,642.4,310.1,642.6,309.7,642.6
			z"/>
		<path id="_Path_119" class="st0" d="M324.1,642.6c-1.1,0-2.1-0.2-3.2-0.5c-1-0.3-1.8-0.8-2.6-1.5c-0.7-0.6-1.3-1.4-1.8-2.2
			c-0.4-0.9-0.7-1.8-0.6-2.8c-0.1-0.8,0.5-1.4,1.3-1.5c0.8-0.1,1.4,0.5,1.5,1.3c0,0.1,0,0.2,0,0.2c0,0.6,0.1,1.1,0.4,1.6
			c0.3,0.5,0.7,1,1.1,1.3c0.5,0.4,1.1,0.7,1.7,0.9c0.7,0.2,1.4,0.3,2.1,0.3c0.7,0,1.5-0.1,2.1-0.3c0.6-0.2,1.2-0.5,1.8-0.9
			c0.5-0.4,0.9-0.8,1.1-1.3c0.3-0.5,0.4-1,0.3-1.6c0-0.5-0.2-1-0.5-1.5c-0.3-0.5-0.7-0.9-1.2-1.3c-0.5-0.4-1.1-0.7-1.6-0.9
			c-0.6-0.3-1.3-0.4-2-0.5c-1-0.1-1.9-0.3-2.9-0.6c-0.9-0.3-1.7-0.7-2.4-1.2c-0.7-0.5-1.3-1.1-1.7-1.8c-0.4-0.7-0.7-1.5-0.7-2.3
			c0-0.8,0.2-1.6,0.6-2.3c0.4-0.7,1-1.4,1.7-1.8c0.7-0.5,1.6-1,2.4-1.2c1.9-0.6,4-0.6,5.9,0c0.9,0.3,1.7,0.7,2.4,1.2
			c0.7,0.5,1.2,1.1,1.7,1.8c0.4,0.7,0.6,1.5,0.6,2.3c0,0.8-0.7,1.5-1.5,1.5l0,0l0,0c-0.4,0-0.7-0.2-1-0.5c-0.3-0.3-0.4-0.7-0.4-1.1
			c0-0.4-0.2-0.7-0.4-1c-0.3-0.4-0.6-0.7-1-0.9c-0.5-0.3-1-0.5-1.5-0.7c-1.2-0.3-2.5-0.3-3.8,0c-0.5,0.1-1.1,0.4-1.5,0.7
			c-0.4,0.3-0.7,0.6-1,1c-0.2,0.3-0.3,0.7-0.3,1.1c0,0.4,0.1,0.7,0.4,1c0.3,0.4,0.7,0.7,1.2,0.9c0.5,0.3,1.1,0.5,1.6,0.7
			c0.5,0.2,1.1,0.3,1.6,0.4c1.1,0.1,2.1,0.4,3.1,0.8c0.9,0.4,1.8,0.9,2.5,1.5c0.7,0.6,1.3,1.3,1.7,2.2c0.4,0.8,0.6,1.7,0.6,2.7
			c0,1-0.2,1.9-0.6,2.8c-0.4,0.9-1,1.6-1.8,2.2C328.2,641.9,326.2,642.6,324.1,642.6L324.1,642.6z"/>
		<path id="_Path_120" class="st0" d="M338.9,642.6c-0.8,0-1.5-0.6-1.5-1.4c0,0,0,0,0,0l0,0v-20c0-0.8,0.7-1.5,1.5-1.5h12.2
			c0.8,0,1.5,0.6,1.5,1.5l0,0c0,0.4-0.2,0.7-0.4,1c-0.3,0.3-0.6,0.4-1,0.4h-10.8v7h7.7c0.8,0.1,1.4,0.8,1.3,1.6
			c-0.1,0.7-0.6,1.3-1.3,1.3h-7.6v7.1h10.8c0.8,0,1.5,0.6,1.5,1.4c0,0,0,0,0,0l0,0c0,0.8-0.6,1.5-1.4,1.5c0,0,0,0,0,0L338.9,642.6z"
			/>
		<path id="_Path_121" class="st0" d="M371.9,642.6c-0.8,0-1.5-0.6-1.5-1.4c0,0,0,0,0,0l0,0v-13c0-0.7-0.1-1.5-0.4-2.1
			c-0.6-1.3-1.6-2.4-3-3c-1.4-0.6-2.9-0.6-4.2,0c-0.6,0.3-1.2,0.7-1.7,1.2c-0.5,0.5-0.9,1.1-1.2,1.8c-0.3,0.7-0.4,1.4-0.4,2.1v13
			c0,0.8-0.7,1.5-1.5,1.5l0,0l0,0c-0.8,0-1.5-0.6-1.5-1.4c0,0,0,0,0,0v-13c0-3.4,2-6.4,5.1-7.8c3.2-1.3,6.8-0.6,9.2,1.8
			c0.8,0.8,1.4,1.7,1.8,2.7c0.5,1,0.7,2.1,0.7,3.3v13C373.3,641.9,372.7,642.6,371.9,642.6C371.9,642.6,371.9,642.6,371.9,642.6
			L371.9,642.6z"/>
		<path id="_Path_122" class="st0" d="M386.3,642.6c-1.1,0-2.2-0.2-3.2-0.5c-1-0.3-1.8-0.9-2.6-1.5c-0.7-0.6-1.3-1.4-1.8-2.2
			c-0.4-0.9-0.7-1.8-0.6-2.8c0-0.8,0.6-1.4,1.4-1.4s1.4,0.6,1.4,1.4c0,0,0,0,0,0c0,0.6,0.1,1.1,0.4,1.6c0.3,0.5,0.7,1,1.1,1.3
			c0.5,0.4,1.1,0.7,1.7,0.9c0.7,0.2,1.4,0.3,2.1,0.3c0.7,0,1.5-0.1,2.1-0.3c0.6-0.2,1.2-0.5,1.8-0.9c0.5-0.4,0.9-0.8,1.1-1.3
			c0.3-0.5,0.4-1,0.3-1.6c-0.1-0.5-0.2-1-0.5-1.5c-0.3-0.5-0.7-0.9-1.1-1.3c-0.5-0.4-1.1-0.7-1.6-0.9c-0.6-0.3-1.3-0.4-2-0.5
			c-1-0.1-1.9-0.2-2.8-0.6c-0.9-0.3-1.7-0.7-2.4-1.2c-0.7-0.5-1.3-1.1-1.7-1.8c-0.4-0.7-0.7-1.5-0.7-2.3c0-0.8,0.2-1.6,0.6-2.3
			c0.4-0.7,1-1.3,1.7-1.8c0.7-0.5,1.6-1,2.4-1.2c1.9-0.6,4-0.6,5.9,0c0.9,0.3,1.7,0.7,2.4,1.2c0.7,0.5,1.3,1.1,1.7,1.8
			c0.4,0.7,0.6,1.5,0.6,2.3c0,0.4-0.2,0.7-0.4,1c-0.3,0.3-0.6,0.4-1,0.4c-0.4,0-0.7-0.2-1-0.5c-0.3-0.3-0.4-0.7-0.4-1.1
			c0-0.4-0.1-0.7-0.4-1c-0.3-0.4-0.6-0.7-1-0.9c-0.5-0.3-1-0.5-1.5-0.7c-0.6-0.2-1.2-0.3-1.9-0.2c-0.6,0-1.3,0.1-1.9,0.2
			c-0.5,0.1-1.1,0.4-1.5,0.7c-0.4,0.3-0.7,0.6-1,1c-0.2,0.3-0.3,0.7-0.4,1.1c0,0.4,0.2,0.7,0.4,1c0.3,0.4,0.7,0.7,1.2,0.9
			c0.5,0.3,1.1,0.5,1.6,0.7c0.5,0.2,1.1,0.3,1.6,0.4c1.1,0.1,2.1,0.4,3.1,0.8c0.9,0.4,1.8,0.9,2.5,1.5c0.7,0.6,1.3,1.3,1.7,2.1
			c0.4,0.8,0.6,1.7,0.6,2.7c0,1-0.2,1.9-0.6,2.8c-0.4,0.9-1,1.6-1.8,2.2C390.4,641.9,388.4,642.6,386.3,642.6z"/>
		<path id="_Path_123" class="st0" d="M408.3,642.6c-0.8,0-1.5-0.6-1.5-1.4c0,0,0,0,0,0l0,0v-7.5l-9-11.7c-0.2-0.3-0.3-0.6-0.3-1
			c0-0.4,0.2-0.8,0.5-1c0.3-0.2,0.6-0.3,1-0.3c0.4,0,0.8,0.2,1.1,0.5l8.3,10.6l8.4-10.6c0.2-0.3,0.6-0.5,1-0.5l0,0
			c0.4,0,0.7,0.1,1,0.3c0.3,0.2,0.5,0.6,0.5,1c0,0.4-0.1,0.7-0.3,1l-9.2,11.7v7.5c0,0.4-0.2,0.7-0.4,1
			C409.1,642.4,408.7,642.6,408.3,642.6z"/> -->
		<!-- <path id="_Path_124" class="st0" d="M430.4,642.6c-1.1,0-2.2-0.2-3.2-0.5c-1-0.3-1.8-0.9-2.6-1.5c-0.7-0.6-1.3-1.4-1.8-2.2
			c-0.4-0.9-0.7-1.8-0.6-2.8c0-0.8,0.6-1.4,1.4-1.4c0.4,0,0.7,0.1,1,0.4c0.3,0.3,0.4,0.6,0.4,1c0,0.6,0.1,1.1,0.4,1.6
			c0.3,0.5,0.7,1,1.1,1.3c0.5,0.4,1.1,0.7,1.7,0.9c0.7,0.2,1.4,0.3,2.1,0.3c0.7,0,1.5-0.1,2.1-0.3c0.6-0.2,1.2-0.5,1.8-0.9
			c0.5-0.4,0.9-0.8,1.2-1.3c0.3-0.5,0.4-1,0.3-1.6c0-0.5-0.2-1-0.5-1.5c-0.3-0.5-0.7-0.9-1.2-1.3c-0.5-0.4-1.1-0.7-1.6-0.9
			c-0.6-0.3-1.3-0.4-2-0.5c-1-0.1-1.9-0.3-2.8-0.6c-0.9-0.3-1.7-0.7-2.4-1.2c-0.7-0.5-1.3-1.1-1.7-1.8c-0.4-0.7-0.7-1.5-0.7-2.3
			c0-0.8,0.2-1.6,0.6-2.3c0.4-0.7,1-1.3,1.7-1.8c0.7-0.5,1.6-1,2.4-1.2c1.9-0.6,4-0.6,5.9,0c0.9,0.3,1.7,0.7,2.4,1.2
			c0.7,0.5,1.3,1.1,1.7,1.8c0.4,0.7,0.6,1.5,0.6,2.3c0,0.8-0.7,1.5-1.5,1.5c0,0,0,0,0,0c-0.4,0-0.7-0.2-1-0.5
			c-0.3-0.3-0.4-0.7-0.4-1.1c0-0.4-0.1-0.7-0.4-1c-0.3-0.4-0.6-0.7-1-0.9c-0.5-0.3-1-0.5-1.5-0.7c-0.6-0.2-1.2-0.3-1.9-0.2
			c-0.6,0-1.3,0.1-1.9,0.2c-0.5,0.1-1.1,0.4-1.5,0.7c-0.4,0.3-0.7,0.6-1,1c-0.2,0.3-0.3,0.7-0.3,1.1c0,0.4,0.1,0.7,0.4,1
			c0.3,0.4,0.7,0.7,1.2,0.9c0.5,0.3,1.1,0.5,1.6,0.6c0.5,0.2,1.1,0.3,1.6,0.4c1.1,0.1,2.1,0.4,3.1,0.8c0.9,0.4,1.8,0.9,2.5,1.5
			c0.7,0.6,1.3,1.3,1.7,2.2c0.4,0.8,0.6,1.7,0.6,2.7c0,1-0.2,1.9-0.6,2.8c-0.4,0.9-1,1.6-1.8,2.2
			C434.6,641.8,432.5,642.6,430.4,642.6L430.4,642.6z"/> -->
	</g>
</g>
<path class="st0" d="M373.6,411.8l0.4,0.5l-0.7,0.6l-1.9,1.6l0,0c0-0.1-0.1-0.3-0.2-0.4c-0.1-0.1-0.2-0.3-0.3-0.4
	c-0.1-0.1-0.2-0.2-0.3-0.3c-0.2-0.1-0.3-0.1-0.5-0.1c-0.2,0-0.4,0.1-0.5,0.2c-0.1,0.1-0.3,0.3-0.3,0.4c-0.1,0.2-0.1,0.3-0.1,0.5
	c0,0.2,0,0.3,0,0.5v0.3h4.8v0.6h-3.4c-0.4,0-1,0-2,0v-0.4c0-0.2,0-0.5,0-0.6c0-0.2,0-0.4,0-0.7c0-0.2,0.1-0.4,0.2-0.6
	c0.1-0.2,0.3-0.5,0.5-0.6c0.2-0.2,0.5-0.2,0.8-0.2c0.3,0,0.7,0.1,0.9,0.3c0.2,0.2,0.4,0.4,0.5,0.7l0,0c0.4-0.4,0.9-0.8,1.3-1.2
	L373.6,411.8z"/>
<path class="st0" d="M371.6,408.2h2.3c0,0.1,0,0.2,0,0.4c0,0.2,0,0.5,0,0.8c0,0.2,0,0.4-0.1,0.7c0,0.2-0.1,0.4-0.2,0.6
	c-0.1,0.2-0.2,0.4-0.4,0.5c-0.2,0.1-0.4,0.2-0.6,0.2c-0.2,0-0.5-0.1-0.6-0.2c-0.2-0.2-0.3-0.4-0.4-0.6c-0.1-0.2-0.2-0.5-0.2-0.7
	c-0.1-0.3-0.1-0.7-0.1-1c-0.2,0-0.4,0.1-0.5,0.2c-0.1,0.1-0.2,0.2-0.3,0.4c0,0.1-0.1,0.3-0.1,0.4c0,0.2,0,0.3,0,0.5
	c0,0.1,0,0.2,0,0.3c0,0.1,0,0.2,0,0.3l-0.5-0.1c0,0,0-0.1,0-0.2s0-0.3,0-0.5c0-0.3,0-0.6,0.1-0.8c0.1-0.2,0.2-0.4,0.3-0.6
	c0.1-0.2,0.3-0.3,0.5-0.3C371,408.3,371.3,408.2,371.6,408.2z M372.6,408.9h-0.8c0,0.1,0,0.3,0.1,0.6c0,0.2,0.1,0.5,0.2,0.7
	c0.1,0.1,0.1,0.3,0.2,0.4c0.1,0.1,0.3,0.2,0.4,0.2c0.2,0,0.3,0,0.4-0.1c0.1-0.1,0.2-0.2,0.2-0.4c0.1-0.1,0.1-0.3,0.1-0.4
	c0-0.2,0-0.3,0-0.5c0-0.1,0-0.1,0-0.2v-0.2L372.6,408.9L372.6,408.9z"/>
<path class="st0" d="M369.1,406.1v0.7h-0.7v-0.7H369.1z M373.9,406.1v0.6H371h-1.1v-0.6h1.1H373.9L373.9,406.1z"/>
<path class="st0" d="M374,401.4v0.6h-0.7h-0.8h-0.6h-0.6c-0.2,0-0.5,0-0.7,0.1c-0.2,0.1-0.2,0.3-0.2,0.5c0,0.2,0,0.4,0.1,0.6
	c0.1,0.3,0.2,0.5,0.3,0.7h0.5h0.8h1.1h0.7v0.6h-0.5l-1.4,0h-1h-1.2v-0.6h0.5l0,0c-0.2-0.3-0.3-0.6-0.4-0.9c-0.1-0.2-0.1-0.4-0.1-0.6
	c0-0.3,0.1-0.6,0.4-0.8c0.2-0.2,0.6-0.3,0.9-0.3h0.9h0.6h0.9L374,401.4z"/>
<path class="st0" d="M372.4,396.5c0.4,0,0.8,0.2,1.1,0.4c0.3,0.2,0.5,0.6,0.6,0.9c0.1,0.3,0.1,0.5,0.1,0.8c0,0.4,0,0.7,0,1.1
	c0,0.1,0,0.1,0,0.2c0,0.1,0,0.1,0,0.2L373,400l-2-0.2l-1.4-0.1l-1.4-0.1l0.1-0.6l1.8,0.2c0-0.4,0.1-0.9,0.3-1.3
	c0.1-0.3,0.3-0.5,0.5-0.8c0.2-0.2,0.4-0.4,0.6-0.5C371.8,396.5,372.1,396.5,372.4,396.5z M372.4,397.2c-0.3,0-0.6,0-0.8,0.2
	c-0.2,0.2-0.4,0.4-0.5,0.6c-0.1,0.3-0.2,0.7-0.3,1c0,0,0,0.1,0,0.1v0.1l0.6,0.1l0.9,0.1l0.9,0.1l0.5,0c0-0.3,0-0.5,0-0.8
	c0-0.2-0.1-0.4-0.1-0.6c-0.1-0.3-0.3-0.5-0.5-0.6C372.9,397.3,372.6,397.2,372.4,397.2L372.4,397.2z"/>
<path class="st0" d="M373.2,392c0.3,0,0.6,0.2,0.8,0.3c0.2,0.2,0.5,0.4,0.6,0.6c0.1,0.2,0.2,0.4,0.3,0.6c0,0.2,0,0.5,0,0.7
	c0,0.2-0.1,0.5-0.2,0.7c-0.1,0.2-0.3,0.4-0.5,0.5c-0.2,0.2-0.5,0.3-0.8,0.3c-0.3,0.1-0.6,0.1-0.9,0c-0.3,0-0.6-0.1-0.8-0.3
	c-0.2-0.1-0.4-0.3-0.6-0.5c-0.1-0.2-0.3-0.4-0.3-0.7c0-0.3,0-0.5,0-0.8c0-0.3,0.1-0.5,0.3-0.7c0.1-0.2,0.3-0.4,0.5-0.5
	c0.2-0.2,0.5-0.3,0.8-0.3C372.6,391.9,372.9,391.9,373.2,392z M373.1,392.6c-0.2,0-0.5,0-0.7,0c-0.2,0-0.5,0.1-0.6,0.3
	c-0.1,0.1-0.2,0.2-0.3,0.3c-0.1,0.1-0.1,0.3-0.1,0.4c0,0.2,0,0.3,0,0.5c0,0.2,0.1,0.3,0.2,0.4c0.1,0.2,0.3,0.3,0.5,0.4
	c0.2,0.1,0.4,0.2,0.7,0.2c0.2,0,0.5,0,0.8,0c0.2,0,0.5-0.1,0.6-0.3c0.1-0.1,0.2-0.2,0.3-0.3c0.1-0.1,0.1-0.3,0.1-0.4
	c0-0.2,0-0.3,0-0.5c0-0.1-0.1-0.3-0.2-0.4c-0.1-0.2-0.3-0.3-0.5-0.4C373.6,392.7,373.3,392.6,373.1,392.6L373.1,392.6z"/>
<path class="st0" d="M373,385c0.8,0.6,1.5,1.1,2.2,1.6l1.1,0.8l-0.1,0.5l-1,0.1l-2.3,0.2l0,0l1.8,1.3c0.6,0.4,0.9,0.6,0.9,0.6
	l-0.1,0.5c-0.1,0-0.5,0-1.3,0.1s-1.7,0.2-2.7,0.3l-0.1-0.6l3.4-0.3l0,0l-2.7-1.9l0.1-0.5l3.3-0.3l0,0l-2.9-1.9L373,385z"/>
<path class="st0" d="M377.9,381.1l0.5,0.2c0,0,0,0.1,0,0.1c0,0.1,0,0.1-0.1,0.2c-0.1,0.4-0.4,0.8-0.7,1c-0.4,0.2-0.8,0.2-1.1,0
	l-0.9-0.3l-1.2-0.4l-0.2,0.6l-0.4-0.2l0.2-0.7l-0.9-0.3l0.2-0.5l0.9,0.3l0.5-1.3l0.4,0.2l-0.5,1.3l0.5,0.2l0.6,0.2l0.4,0.1l0.5,0.2
	c0.2,0.1,0.5,0.1,0.8,0c0.2-0.2,0.4-0.4,0.5-0.7L377.9,381.1C377.9,381.1,377.9,381.1,377.9,381.1z"/>
<path class="st0" d="M378.3,376.3c0.3,0.1,0.5,0.3,0.7,0.5c0.2,0.2,0.4,0.4,0.5,0.7c0.1,0.2,0.1,0.4,0.1,0.7c0,0.2-0.1,0.5-0.2,0.7
	c-0.1,0.2-0.2,0.4-0.4,0.6c-0.2,0.2-0.4,0.3-0.6,0.4c-0.3,0.1-0.6,0.2-0.8,0.1c-0.3,0-0.6-0.1-0.9-0.2c-0.3-0.1-0.5-0.3-0.7-0.5
	c-0.2-0.2-0.4-0.4-0.5-0.7c-0.1-0.2-0.2-0.5-0.1-0.7c0-0.3,0.1-0.5,0.2-0.7c0.1-0.2,0.2-0.5,0.4-0.6c0.2-0.2,0.4-0.3,0.6-0.4
	c0.3-0.1,0.5-0.2,0.8-0.1C377.7,376.2,378,376.2,378.3,376.3z M378,376.9c-0.2-0.1-0.5-0.2-0.7-0.2c-0.2,0-0.5,0-0.7,0.1
	c-0.1,0.1-0.3,0.1-0.4,0.2c-0.1,0.1-0.2,0.2-0.2,0.4c-0.1,0.1-0.1,0.3-0.1,0.5c0,0.2,0,0.3,0.1,0.5c0.1,0.2,0.2,0.4,0.4,0.5
	c0.2,0.2,0.4,0.3,0.6,0.4c0.2,0.1,0.5,0.2,0.7,0.2c0.2,0,0.5,0,0.7-0.1c0.1-0.1,0.2-0.1,0.3-0.2c0.1-0.1,0.2-0.2,0.2-0.4
	c0.1-0.1,0.1-0.3,0.1-0.5c0-0.2,0-0.3-0.1-0.4c-0.1-0.2-0.2-0.4-0.4-0.5C378.4,377.2,378.2,377.1,378,376.9L378,376.9z"/>
<path class="st0" d="M380.8,375.7l-0.3,0.6l-1-0.5l-1.8-0.9l-1-0.5l-1.4-0.7l0.3-0.6l1.4,0.8l1,0.5l1.5,0.8L380.8,375.7z M382,373.1
	l0.1,0.5c-0.8,0.2-1.5,0.5-2.1,0.7l-1,0.4l0,0l-0.4-1.1c-0.2-0.7-0.4-1.2-0.6-1.6l0.5-0.2c0.1,0.4,0.3,0.9,0.4,1.3s0.2,0.8,0.3,0.9
	l0,0C380.4,373.6,381.3,373.3,382,373.1L382,373.1z"/>
<path class="st0" d="M382.2,368.8l-1.4,2.5c0.2,0.1,0.5,0.2,0.8,0.2c0.3,0,0.5,0,0.8-0.2c0.2-0.1,0.3-0.2,0.5-0.3
	c0.2-0.2,0.3-0.4,0.4-0.6c0.1-0.1,0.1-0.2,0.2-0.4l0.1-0.2l0.4,0.3l-0.1,0.2l-0.2,0.4c-0.2,0.3-0.4,0.6-0.7,0.9
	c-0.2,0.2-0.5,0.4-0.8,0.4c-0.2,0.1-0.5,0.1-0.8,0.1c-0.3,0-0.6-0.1-0.8-0.3c-0.2-0.1-0.5-0.3-0.6-0.5c-0.2-0.2-0.3-0.4-0.4-0.7
	c-0.1-0.2-0.1-0.5-0.1-0.7c0-0.2,0.1-0.5,0.2-0.7c0.1-0.2,0.3-0.4,0.4-0.5c0.2-0.1,0.3-0.2,0.5-0.2c0.2,0,0.5,0,0.7,0
	C381.6,368.5,381.9,368.6,382.2,368.8z M381.5,369.1c-0.3-0.1-0.5-0.2-0.8-0.1c-0.3,0.1-0.5,0.2-0.6,0.5c-0.1,0.2-0.2,0.5-0.1,0.8
	c0.1,0.3,0.2,0.5,0.5,0.7L381.5,369.1z"/>
<path class="st0" d="M386.4,366.4l-0.4,0.5l-0.6-0.4l-0.6-0.4l-0.5-0.3c-0.2-0.1-0.4-0.3-0.5-0.3c-0.2-0.1-0.4-0.2-0.6-0.2
	c-0.2,0-0.4,0.2-0.5,0.4c-0.1,0.2-0.2,0.4-0.2,0.6c-0.1,0.3-0.1,0.5-0.1,0.8l0.4,0.3l0.6,0.4c0.3,0.2,0.6,0.4,0.9,0.6l0.6,0.4
	l-0.3,0.5l-0.4-0.3L383,368l-0.8-0.5l-1-0.6l0.3-0.5l0.4,0.3l0,0c0-0.3,0.1-0.7,0.1-1c0.1-0.2,0.1-0.4,0.2-0.6
	c0.2-0.3,0.4-0.4,0.7-0.5c0.3-0.1,0.6,0,0.9,0.2l0.7,0.5l0.5,0.3l0.8,0.5L386.4,366.4z"/>
<path class="st0" d="M389,357c0.4,0.8,0.9,1.6,1.3,2.4c0.4,0.8,0.7,1.2,0.7,1.2l-0.3,0.4l-0.9-0.4l-2.1-0.8l0,0l1.1,1.9l0.5,1
	l-0.3,0.4l-1.2-0.5c-0.8-0.3-1.6-0.6-2.6-0.9l0.2-0.6l3.2,1.3l0,0l-1.6-2.9l0.3-0.4l3,1.2l0,0l-1.7-2.9L389,357z"/>
<path class="st0" d="M393.6,355c0.2,0.2,0.4,0.5,0.5,0.7c0.1,0.3,0.2,0.6,0.2,0.8c0,0.5-0.2,0.9-0.6,1.3c-0.2,0.2-0.4,0.3-0.6,0.4
	c-0.2,0.1-0.5,0.1-0.7,0.1c-0.3,0-0.6-0.1-0.8-0.2c-0.3-0.1-0.5-0.3-0.8-0.5c-0.2-0.2-0.4-0.4-0.5-0.7c-0.2-0.5-0.2-1,0-1.5
	c0.1-0.2,0.2-0.5,0.4-0.6c0.2-0.2,0.4-0.3,0.6-0.4c0.2-0.1,0.5-0.1,0.7-0.1c0.3,0,0.6,0.1,0.8,0.2
	C393.1,354.6,393.4,354.8,393.6,355z M393.1,355.5c-0.2-0.2-0.4-0.3-0.6-0.4c-0.2-0.1-0.4-0.2-0.7-0.1c-0.1,0-0.3,0-0.4,0.1
	c-0.1,0.1-0.3,0.2-0.4,0.3c-0.3,0.2-0.4,0.5-0.4,0.9c0,0.2,0.1,0.4,0.1,0.6c0.2,0.4,0.6,0.8,1,1c0.2,0.1,0.5,0.1,0.7,0.1
	c0.1,0,0.3,0,0.4-0.1c0.1-0.1,0.3-0.1,0.4-0.2c0.1-0.1,0.2-0.2,0.3-0.4c0.1-0.1,0.1-0.3,0.1-0.5c0-0.2-0.1-0.4-0.1-0.6
	C393.4,355.8,393.3,355.6,393.1,355.5L393.1,355.5z"/>
<path class="st0" d="M395.1,351.5c-0.1,0.1-0.2,0.3-0.4,0.6s-0.3,0.6-0.5,1l0.3,0.3l0.4,0.5l0.8,0.8l0.5,0.5l-0.5,0.4l-0.3-0.3
	c-0.2-0.2-0.5-0.5-0.9-1l-0.7-0.8c-0.3-0.3-0.6-0.6-0.8-0.9l0.5-0.4l0.4,0.5l0,0c0.1-0.3,0.2-0.6,0.4-0.9c0.1-0.2,0.2-0.4,0.3-0.7
	L395.1,351.5z"/>
<path class="st0" d="M398.5,353.3l-0.5,0.4l-0.7-0.8l-1.3-1.6l-0.7-0.9l-1-1.2l0.5-0.4l1,1.3l0.7,0.9l1.1,1.3L398.5,353.3z
	 M400.7,351.5l-0.1,0.5c-0.8-0.1-1.5-0.2-2.2-0.2l-1-0.1l0,0c0-0.1,0.1-0.5,0.1-1.2s0.1-1.3,0.1-1.7l0.5,0.1
	c-0.1,0.4-0.1,0.9-0.2,1.4s-0.1,0.8-0.1,0.9l0,0L400.7,351.5z"/>
<path class="st0" d="M402.4,348.9c0.1,0.1,0.2,0.3,0.2,0.5c0,0.2,0,0.4-0.1,0.5c-0.1,0.2-0.2,0.4-0.3,0.5c-0.2,0.2-0.3,0.3-0.5,0.5
	l-0.3,0.2l-0.2,0.1l-0.3-0.4l0.2-0.1l0.4-0.3l0.3-0.2c0.1-0.1,0.2-0.2,0.2-0.3c0.1-0.1,0.1-0.2,0.1-0.3c0-0.1,0-0.2-0.1-0.3
	c0-0.1-0.1-0.1-0.2-0.2c-0.1,0-0.2,0-0.3,0c-0.2,0-0.3,0-0.5,0.1c-0.2,0-0.3,0.1-0.5,0.1c-0.2,0-0.4,0-0.6-0.1
	c-0.2-0.1-0.3-0.2-0.4-0.3c-0.1-0.1-0.2-0.3-0.2-0.5c0-0.2,0-0.4,0.1-0.5c0.1-0.2,0.2-0.3,0.3-0.4c0.1-0.1,0.3-0.3,0.4-0.4l0.3-0.2
	l0.1-0.1l0.4,0.4l-0.2,0.1l-0.4,0.3c-0.1,0.1-0.2,0.1-0.3,0.2c-0.1,0.1-0.1,0.2-0.2,0.2c-0.1,0.1-0.1,0.2-0.1,0.3
	c0,0.1,0,0.2,0.1,0.2c0.1,0.1,0.1,0.1,0.2,0.2c0.1,0,0.2,0,0.3,0l0.5-0.1c0.1,0,0.3-0.1,0.5-0.1c0.2,0,0.4,0,0.6,0.1
	C402.1,348.6,402.3,348.7,402.4,348.9z"/>
<path class="st0" d="M406.7,347.5l-0.5,0.3l-0.4-0.6l-0.4-0.7c-0.1-0.1-0.2-0.3-0.3-0.5c-0.1-0.2-0.2-0.4-0.3-0.5
	c-0.1-0.2-0.3-0.4-0.5-0.5c-0.2,0-0.4,0-0.6,0.1c-0.2,0.1-0.3,0.3-0.4,0.4c-0.2,0.2-0.3,0.5-0.4,0.7l1.6,2.5l-0.5,0.3l-0.7-1l-1-1.5
	c-0.2-0.2-0.4-0.6-0.6-1l-0.9-1.3l0.5-0.3l1.2,1.9l0,0c0.2-0.3,0.3-0.6,0.5-0.9c0.1-0.2,0.3-0.3,0.5-0.4c0.3-0.2,0.6-0.2,0.9-0.2
	c0.3,0.1,0.6,0.3,0.7,0.6c0.2,0.3,0.3,0.5,0.5,0.7l0.3,0.5l0.5,0.7L406.7,347.5z"/>
<path class="st0" d="M409.9,343.3c0.1,0.3,0.2,0.6,0.3,0.9c0,0.3,0,0.6-0.1,0.9c-0.1,0.2-0.2,0.4-0.3,0.6c-0.2,0.2-0.4,0.3-0.6,0.5
	c-0.2,0.1-0.4,0.2-0.7,0.2c-0.2,0-0.5,0-0.7,0c-0.3-0.1-0.5-0.2-0.8-0.4c-0.2-0.2-0.4-0.4-0.6-0.7c-0.1-0.2-0.2-0.5-0.3-0.8
	c0-0.3,0-0.5,0-0.8c0.1-0.2,0.2-0.5,0.3-0.7c0.2-0.2,0.4-0.4,0.6-0.5c0.2-0.1,0.5-0.2,0.7-0.2c0.2,0,0.5,0,0.7,0.1
	c0.3,0.1,0.5,0.2,0.7,0.4C409.6,342.9,409.8,343.1,409.9,343.3z M409.4,343.7c-0.1-0.2-0.3-0.4-0.5-0.6c-0.2-0.2-0.4-0.3-0.6-0.3
	c-0.1,0-0.3,0-0.4,0c-0.2,0-0.3,0.1-0.4,0.1c-0.1,0.1-0.3,0.2-0.4,0.3c-0.1,0.1-0.2,0.3-0.2,0.4c-0.1,0.2-0.1,0.4,0,0.6
	c0,0.2,0.1,0.5,0.2,0.7c0.1,0.2,0.3,0.4,0.5,0.6c0.2,0.2,0.4,0.3,0.6,0.3c0.1,0,0.3,0,0.4,0c0.1,0,0.3-0.1,0.4-0.1
	c0.1-0.1,0.3-0.2,0.4-0.3c0.1-0.1,0.2-0.3,0.2-0.4c0-0.2,0-0.4,0-0.6C409.6,344.1,409.5,343.9,409.4,343.7z"/>
<path class="st0" d="M414,341.3c0.2,0.3,0.2,0.7,0.2,1.1c0,0.3-0.2,0.7-0.4,0.9c-0.2,0.2-0.4,0.5-0.7,0.6c-0.3,0.2-0.5,0.3-0.8,0.5
	l0.8,1.6l-0.6,0.3c0,0-0.2-0.4-0.5-1s-0.6-1.2-0.9-1.9l-0.5-1.1l-0.6-1.3l0.2-0.1l0.2-0.1c0.4-0.2,0.8-0.3,1.2-0.5
	c0.3-0.1,0.6-0.1,0.9-0.1c0.3,0,0.6,0.1,0.8,0.3C413.7,340.8,413.9,341,414,341.3z M413.4,341.6c-0.1-0.2-0.2-0.4-0.4-0.6
	c-0.2-0.1-0.4-0.2-0.6-0.2c-0.2,0-0.4,0-0.6,0.1c-0.2,0.1-0.5,0.1-0.7,0.2H411h-0.1l0.2,0.4c0.1,0.2,0.3,0.7,0.6,1.3l0.2,0.5
	c0.1,0.2,0.2,0.4,0.3,0.5c0.2-0.1,0.4-0.2,0.6-0.4c0.2-0.1,0.3-0.3,0.5-0.4c0.2-0.2,0.3-0.5,0.3-0.7
	C413.6,342,413.6,341.8,413.4,341.6L413.4,341.6z"/>
<path class="st0" d="M418.6,339.6l-2,0.7l-0.2-0.5l2-0.7L418.6,339.6z"/>
<path class="st0" d="M424.5,336.3c0.1,0.4,0.1,0.8-0.1,1.1c-0.2,0.4-0.4,0.7-0.8,0.9c-0.2,0.1-0.4,0.2-0.5,0.3
	c-0.2,0.1-0.4,0.2-0.7,0.2l0.5,1.6l-0.6,0.2l-0.2-0.9c-0.1-0.4-0.3-1-0.5-1.9c-0.1-0.3-0.2-0.6-0.3-1s-0.2-0.8-0.4-1.3l0.3-0.1
	l0.2-0.1c0.4-0.1,0.8-0.2,1.1-0.2c0.3,0,0.6,0,0.9,0.1c0.3,0.1,0.5,0.2,0.7,0.4C424.3,335.8,424.5,336,424.5,336.3z M423.9,336.5
	c-0.1-0.2-0.2-0.5-0.4-0.6c-0.2-0.2-0.4-0.3-0.7-0.3c-0.2,0-0.4,0-0.5,0l-0.6,0.1h-0.1h-0.1l0.1,0.6c0.1,0.4,0.2,0.6,0.2,0.8
	l0.2,0.7c0.1,0.3,0.1,0.4,0.1,0.4h0.1h0.1c0.2,0,0.4-0.1,0.5-0.2c0.2-0.1,0.3-0.2,0.5-0.3c0.2-0.1,0.3-0.4,0.4-0.6
	C424,337,424,336.7,423.9,336.5z"/>
<path class="st0" d="M428.6,336.7c0.1,0.7,0.2,1.2,0.3,1.6c0.1,0.4,0.1,0.6,0.1,0.7l-0.4,0.1c-0.2,0.1-0.5,0.1-0.8,0.2
	c-0.2,0-0.4,0.1-0.6,0.1c-0.2,0-0.4,0-0.6,0c-0.2,0-0.4-0.1-0.6-0.3c-0.2-0.1-0.3-0.3-0.3-0.6c-0.1-0.2,0-0.5,0.1-0.7
	c0.1-0.2,0.3-0.4,0.5-0.6c0.2-0.1,0.4-0.2,0.6-0.3c0.3-0.1,0.6-0.2,0.9-0.3c0-0.2-0.1-0.3-0.3-0.5c-0.1-0.1-0.3-0.2-0.4-0.2
	c-0.1,0-0.3,0-0.4,0c-0.2,0-0.3,0-0.5,0.1l-0.3,0.1l-0.3,0.1v-0.5l0.2-0.1l0.5-0.1c0.3-0.1,0.6-0.1,0.8-0.1c0.2,0,0.5,0.1,0.7,0.2
	c0.2,0.1,0.3,0.3,0.4,0.4C428.5,336.2,428.6,336.4,428.6,336.7z M428.3,337.7c0-0.1,0-0.2-0.1-0.3s-0.1-0.3-0.1-0.5l-0.6,0.2
	c-0.2,0.1-0.5,0.2-0.7,0.3c-0.1,0.1-0.2,0.2-0.3,0.3c-0.1,0.1-0.1,0.3-0.1,0.4c0,0.2,0.1,0.3,0.2,0.4c0.1,0.1,0.3,0.1,0.4,0.2
	c0.1,0,0.3,0,0.4,0c0.2,0,0.3,0,0.5-0.1h0.2l0.2-0.1c0,0,0-0.1-0.1-0.3L428.3,337.7z"/>
<path class="st0" d="M432.2,334.8c-0.2,0.1-0.4,0.2-0.6,0.3c-0.3,0.2-0.6,0.4-1,0.6c-0.3,0.2-0.3,0.3,0.1,0.4c0,0.2,0.1,0.5,0.1,0.6
	l0.2,1.1c0.1,0.4,0.1,0.7,0.1,0.7l-0.6,0.1c0,0,0-0.2-0.1-0.4s-0.1-0.7-0.2-1.3c0-0.2-0.1-0.6-0.2-1s-0.1-0.9-0.2-1.2l0.6-0.1
	l0.1,0.6l0,0c0.3-0.2,0.5-0.4,0.8-0.6c0.2-0.1,0.4-0.3,0.6-0.4L432.2,334.8z"/>
<path class="st0" d="M433.6,333.4l-0.7,0.1l-0.1-0.7l0.7-0.1L433.6,333.4z M434.1,338.1l-0.6,0.1c0,0,0-0.3-0.1-0.8
	s-0.1-0.9-0.1-1.2s-0.1-0.6-0.1-0.9s-0.1-0.7-0.1-1.1l0.6-0.1c0,0.4,0.1,0.7,0.1,1.1s0.1,0.6,0.1,0.9c0.1,0.6,0.1,1.1,0.2,1.5
	C434.1,337.9,434.1,338.1,434.1,338.1L434.1,338.1z"/>
<path class="st0" d="M437.6,336.7c0,0.2,0,0.4-0.1,0.5c-0.1,0.2-0.2,0.3-0.3,0.4c-0.2,0.1-0.4,0.2-0.5,0.3c-0.2,0.1-0.5,0.1-0.7,0.1
	h-0.6l-0.1-0.5h0.3c0.2,0,0.3,0,0.5,0c0.1,0,0.2,0,0.4,0c0.1,0,0.2-0.1,0.4-0.1c0.1-0.1,0.2-0.1,0.3-0.2c0.1-0.1,0.1-0.2,0.1-0.3
	c0-0.1,0-0.2-0.1-0.2c-0.1-0.1-0.1-0.1-0.2-0.2c-0.1-0.1-0.3-0.1-0.5-0.2l-0.5-0.2c-0.2-0.1-0.3-0.2-0.4-0.4
	c-0.1-0.1-0.2-0.3-0.2-0.5c0-0.2,0-0.4,0.1-0.5c0.1-0.2,0.2-0.3,0.4-0.4c0.2-0.1,0.3-0.2,0.5-0.2c0.2,0,0.4-0.1,0.5-0.1h0.4h0.2
	l0.1,0.5h-0.2c-0.2,0-0.3,0-0.5,0c-0.1,0-0.2,0-0.3,0.1c-0.1,0-0.2,0.1-0.3,0.1c-0.1,0.1-0.2,0.1-0.2,0.2c-0.1,0.2-0.1,0.4,0.1,0.5
	c0.1,0.1,0.2,0.1,0.3,0.2c0.1,0,0.3,0.1,0.5,0.2l0.4,0.2c0.2,0.1,0.3,0.2,0.5,0.4C437.6,336.3,437.6,336.5,437.6,336.7z"/>
</svg>
